<mxfile host="app.diagrams.net" modified="2023-01-12T08:17:26.281Z" agent="5.0 (Windows NT 10.0; Win64; x64) AppleWebKit/537.36 (KHTML, like Gecko) Chrome/108.0.0.0 Safari/537.36" etag="1InAkeGptdNEkxMUbbo6" version="20.7.3" type="github">
  <diagram id="-DmvtlWElh9QCTEMgI5E" name="第 1 页">
    <mxGraphModel dx="1235" dy="684" grid="1" gridSize="10" guides="1" tooltips="1" connect="1" arrows="1" fold="1" page="1" pageScale="1" pageWidth="827" pageHeight="1169" math="0" shadow="0">
      <root>
        <mxCell id="0" />
        <mxCell id="1" parent="0" />
        <mxCell id="CB0z2RIM7W7MYxWuxskS-1" value="" style="shape=image;verticalLabelPosition=bottom;labelBackgroundColor=default;verticalAlign=top;aspect=fixed;imageAspect=0;image=data:image/png,iVBORw0KGgoAAAANSUhEUgAABDcAAAKkCAYAAAAUb9QAAAAgAElEQVR4nOzdf3AcZ73n+0+3emYsOwQlWLHkREVkkyznQAjWOfkhQ4iPA9xywOZErsCNtI4Tstls7dk9rspmKUACRURmD7spClM3Z8n1YUnia+UmKRuufa59bpYYHwKSsS8yxHArFbBFHTuWjEwQjuOZ0fzo+8fMSD2jX93ytKZ79H5VuWJpnu7v8+2ZWE9/9fTzGInkuC0AAAAAAICQMivdAQAAAAAAgMtBcQMAAAAAAIQaxQ0AAAAAABBqFDcAAAAAAECoUdwAAAAAAAChRnEDAAAAAACEGsUNAAAAAAAQahQ3AAAAAABAqFHcAAAAAAAAoUZxAwAAAAAAhBrFDQAAAAAAEGoUNwAAAAAAQKhR3AAAAAAAAKFGcQMAAAAAAISaVcngtm0X/d0wjKLvAUC1Mgxj4u/8uwcAAAAUK9QHnONm599LVay4Ydv2xJ9sNsvgHsCiYUgyTFMX07ausIyJfwsBAAAAFDMMQ6ZpThQ2ZipwVHzmRjqdViqVUiadzg3uZy7EAEBVqKmp0cW0rfNJW1dGDF0dNSjyAgAAAE52rpBRY1mKRCKyLCuYMzckKZvNKpVKKRGPa3w8qWyWgT2A6lZjWcrYhoYTWWVt6ZKkdMzQFZahdKHICwAAAECmaSgajeX/bso0Z142tOKPpWTSaY2PJ9Xc3FyprgDAgrElDcezui5b/P2GWkMRw9AsxWgAAABg0RkaGlIkEpEdjU5Zg8OpYrulFDqUW3PD+28q4/G4stns3A3zUqmUxsfHfY0hSadPn/Y1BnmQhx8xyGPh8vhD0tb4NOFGErbSti1b4cjDDfIgDz9ikAd5+BGDPMjDjxjkQR5+xFiMeWSzk+vTzfZYSsWKGxNTr/ktJYBFwJb0Tlq6mJ6+mJu1pdEkj6QAAAAAU+TrBrM9wl2x4gYALBqGoXTW1h+mm7LhMJ6VziVmnmoHAAAAYHoUNwBgAYwmbbl5Ai+Rye2iQoEDAAAAcI/iBgD47I/j06+zMZOLaXvGx1cAAAAATEVxAwB8YkuKZ6QLKe+FivNJW8ls7hwAAAAAZkdxAwB8YKuwSKi3lamdziWySs9jNykAAABgsaG4AQA+MJQrTlxObaKwgwrlDQAAAGB2VqU7AADVxrallC0trTG0tEZKZAxFI4ZM09DFtK3pltOwDOkKK7eIaNowZNtSJJL7Op6xtbSGBUYBAACAmVDcAIAyMwwpakjRaK4gkcgaikZzxY1EVkpnplY3LNNQXb592iwubgAAAACYHY+lAIDPbNvbgyW2bXs+BgAAAFjMAjVzIx6Pe2qfTCYDFyOTyZCHB+ThDnl4E9Q8DMNQImErMc3MDdUYSsgoKmoENQ+vyMMd8vCGPNwhD2/Iwx3y8IY83CEPbxZLHrW1ta7PFajiRiwWc902mUwqEonINN1NPkmn08pms4pGo77FkCTTNMnDBfIgDz9ihCGPaNZWdpriRrTGmHiMJQx5uEEe5OFHDPIgDz9ikAd5+BGDPMjDjxiLOY+5BKq44eViF9q7PcYwDE/t5xPDGcevGORBHn7EII+Fy8M0bZnTPHJimrk1OZznD3IeXs5PHu6QB3mUO4Yzjl8xyIM8/IhBHuThRwzyqI48Zo1ftjMBAAAAAABUAMUNAAAAAAAQahQ3AAAAAABAqFHcAAAAAAAAoUZxAwAAAAAAhBrFDQAAAAAAEGoUNwAAAAAAQKhR3AAAAAAAAKFGcQMAAAAAAISaVekOOKXTac/tTdNdfSabzcq2bV9jSPI9BnmQhx8xyGNh8qipqVEmYyuTsae8npGhTMaQbduBz6Na3g/yKH8MiTzIo/wxJPIgj/LHkMiDPMofQyKPcudhWe5LFoEqbmSzWd/a27bte4xCHPJwd/759Is8/IlBHguTh2EYymZtZbNTixtZw1A2mytuBD0PL+efT7/Iw58Y5EEefsQgD/LwIwZ5kIcfMcijOvKYTaCKG9Fo1HXbeDyuaDTqujKUSqVk27avMSTJNE3ycIE8yMOPGGHII5KxlTGnFjciNYYiEUNSOPJwgzzIw48Y5EEefsQgD/LwIwZ5kIcfMRZzHnMJVHEDAKpdwxJDklHpbgAAAABVhQVFAQAAAABAqFHcAAAAAAAAoUZxAwAAAAAAhBrFDQAAAAAAEGoUNwAAAAAAQKhR3AAAAAAAAKFGcQMAAAAAAIQaxY0y2PDP76jztYQkyTRNvX4hq9t+eLHCvUIQfOrHk58NSXr9QlbrfpqpYI8QBH9+8G19/83UxNfffzOlPz/4dgV7hKDgs4Hp3PbDi3r9QlaGYcgwDH35tYQ+85N3Kt0tAAACxap0B6rBt1uW6F8fiUuvJfSZq5fpPx69pLuu4dJC2tFSq46BS9JrCW25PqqtRy/pr5ZTU1zstn9oSVHRq/O1hLZ/aEkFe4Sg4LOB6dx1jaWtRy/puy1R9b2R1Cvn0uprXVrpbgEAEChGIjluVyJwNptVOp3WpUvv6OLbF7V69SrF4/FKdKUsfnvJ1ENH47qoGv0vF09p26HvaPzs2Up3a96SyaRisVilu3HZKp2HYVka+djd+k/vu0cXzci8PxuVzqNcyCOn5l3v0qsfb9d/XXGHJOkL517VHT/sU+bthf0NPe9HsCSTSS1dvjwQn43LUU3vR1DyiK5cqR3r/53+nytW6Qpl9N1ba/W+pVlXx547d04rVqzwuYf+I49gIY9gIY9gIY/yqq2t1cmTp3TFu67Q0qXLZFmWTHP6XxYHanqBl0FEMplUJBKZMbFS6XRa2WxW0WjUlxjWuC0ZkmzJisW07AMfkBWQQdF8VMvvgyqdh7l0qWINDZJpSJr/Z6PSeZQLeeRY9fWy3v3uya/f/W4t+7M/U3p09DLP7A3vR7AsVXA+G5ejmt6PoIi9732qKfzcMCTLshSLGa6ONU0z1OOrAvIgj3LHkMiDPMofQyIPP/OYS6CKG14udqG922MMw/DU3kuM37yd0QPH4rqz5k/69E9f0hc+8u8U/di/0fb/wFTixe63F7P6j0cu6ePXWLr/+qi2/uw6PhvQ999M6euOxw06X/uQlj1wq+65NlLhnqHS+GxgOl9+LaFXz6X133/8lP7xzvv0wDFLfbcv1eor5h7TFMY/XgRlfDVdHL9ikAd5+BGDPMjDjxiLPY9Z45ftTIvY3w4mdNc1lr50vl/L9zyrZ29bqh+eS1e6WwiAbYNx3XWNpa9/aInef6XJZwOSJtdRuOfaiO65NjJlnQUsXnw2MJ1XzqX17G1LtfzF/6Ev/emY7rrG0n/6BZ8LAACcAjVzI6wO3rlMkjTa/yfZqZTef6Wpn33iigr3CkHwf39sWdHXfDYgSf/fhncVfV24kQX4bGA6hZ8bv0qllPnTn/R1FpkFAGAKZm4AAAAAAIBQo7gBAAAAAABCjeIGAAAAAAAINYobAAAAAAAg1ChuAAAAAACAUKO4AQAAAAAAQo3iBgAAAAAACDWKGwAAAAAAINSsSnfA6eTJk67bZjIZ1dTUuG5v27YkyTAM32IkR0ddtwUAAPDCtm2Njo7qgofxUiKRCP34SiIPt8iDPPyIQR7k4UcMt3msXr3a9TkDVdzw0vF4PK5YLCbTdDf5JJVKybZtRaNR32KM1tfrnOuzAwAAuGcYhurr61XvYbx0+vRpNTU1uW4fxPGVRB7kUf4YEnmQR/ljSOThZx5z4bEUAAAAAAAQahQ3AAAAAABAqFHcAAAAAAAAoUZxAwAAAAAAhBrFDQAAAAAAEGoUNwAAAAAAQKhR3AAAAAAAAKFGcQMAAAAAAIQaxQ0AAAAAABBqFDcAAAAAAECoWZXugFM8HvfUPplMBipGKpXy2h0AAADXUqmUp7FMJpMJ/fhKIg+vyMMd8vCGPNwhD2/milFbW+v6XIEqbsRiMddtk8mkIpGITNPd5JN0Oq1sNqtoNOpbDMuq1OUckY5Iur3BvxBn+qSmPdLpPdJ1ZTzv85ul72+WXmwv40kBAKhOlmV5Gi+Zphn68ZVEHuRR/hgSeZBH+WNI5OFnHnMJVHHDy8UutHd7jGEYntrPN8bCG5E+2yjdMyzdXoHwAABgwRTGM361l4I3vnLG8SsGeZCHHzHIgzz8iLHY85g1ftnOBAAAAAAAUAEUN0JhRPqsIRmFP5ulM4XvN0ovSWpvlD7bl2t+ps/RNv/niYHJ0z2/Odf2+c2ONtuLQ5ae41XN/vp0MZ7om+z38yOT358pJgAAAAAA80BxIwyeaJRu6pdsO/enT9KjfZIapBeHpXsl9Q3n160YkJo6pAF7sv1Ar/TVtbl1OQpe6pD0VL7NsHRvl6M4kT9H33D+9X6pvcNxsMsYX+2QHs2/fl+DdGS71C7pdOEYSe17fbxwAAAAAIDFgOJG4I1IJ0q+dd+eWRbgbM0VDpzrb9y+fpp2vbmCgySpQbqnTToxlPvy+Sele3c7Xm/NFS/mE2OizYj0zS6p76nJBUlv75S+NkMaAAAAAAC4RHEj8BqkR/OzIooeSZmL81GWtVNfvrd55kN/u1e6qeT166Zr7yXGUO7xmeaSHV3e1zZzPwAAAAAAcIHiRhjc3ul4fGSv1DRbkWMgX2xwPsrSX+YOLUQMAAAAAADcobgRKg3Si44ix6sjU5scOSSpN1dw+Epr7ntnhryFeZ/jEZUC5znmFaM5tzbIUEmff8uaGwAAAACAy0NxI/Dyj344dyI5c0h6qU26o0FSg3STpN86iwuDjlkd+cU/vbjvsdyCo4UdTjQgtXaVNPIaI/94TfvfTB53ZLv0VW9dAwAAAACgFMWNwGuQXux3rLlh5Hcq2TO5MOcnCmtybM89wtKn/KMr+bUwBvI7qvzPgVniOLXmd0hpnDxH3+7Jl+cb4/ZOaaBl8rhWSX2suQEAAAAAuDxWpTvglE6nPbc3TXf1mWw2K9u2fY/hj/zuJDO5vVOyOye/vm+PdF9Jmxft2V+f8r1pYt7XPkt7FzGm66s0fTsAADBFJpPxNJZZiLGP3zEk8iCP8seQyIM8yh9DIo9y52FZ7ksWgSpueC0OeGlv52/U/YzhX3EDAAAgN57xOv4J+/iqEIc83J1/Pv0iD39ikAd5+BFjsecxm0AVN6LRqOu28Xhc0WjUdWUolUrJtm1fY3ipKgEAAHhlWZansYxpmqEfX0nkQR7ljyGRB3mUP4ZEHn7mMRfW3AAAAAAAAKFGcQMAAAAAAIQaxQ0AAAAAABBqFDcAAAAAAECoUdwAAAAAAAChRnEDAAAAAACEGsUNAAAAAAAQahQ3AAAAAABAqFHcAAAAAAAAoUZxAwAAAAAAhJpV6Q44xeNxT+2TyWSgYqRSKa/dAQAAcC2VSnkay2QymdCPryTy8Io83CEPb8jDHfLwZq4YtbW1rs8VqOJGLBZz3TaZTCoSicg03U0+SafTymazikajvsWwrEBdTgAAUGUsy/I0XjJNM/TjK4k8yKP8MSTyII/yx5DIw8885hKou3EvF7vQ3u0xhmF4aj/fGAAAAH4pjGf8ai8Fb3zljONXDPIgDz9ikAd5+BFjsecxa/yynQkAAAAAAKACKG4AAAAAAIBQo7gBAAAAAABCjeIGAAAAAAAINYobAAAAAAAg1ChuAAAAAACAUKO4AQAAAAAAQo3iBgAAAAAACDWKGwAAAAAAINQobgAAAAAAgFCzKt0Bp5MnT7pum8lkVFNT47q9bduSJMMwfIuRHB113RYAAMAL27Y1OjqqCx7GS4lEIvTjK4k83CIP8vAjBnmQhx8x3OaxevVq1+cMVHHDS8fj8bhisZhM093kk1QqJdu2FY1GfYsxWl+vc67PDgAA4J5hGKqvr1e9h/HS6dOn1dTU5Lp9EMdXEnmQR/ljSORBHuWPIZGHn3nMhcdSAAAAAABAqFHcAAAAAAAAoUZxAwAAAAAAhBrFDQAAAAAAEGoUNwAAAAAAQKhR3AAAAAAAAKFGcQMAAAAAAIQaxQ0AAAAAABBqFDcAAAAAAECoUdwAAAAAAAChZlW6A07xeNxT+2QyGagYqVTKa3cAAABcS6VSnsYymUwm9OMriTy8Ig93yMMb8nCHPLyZK0Ztba3rcwWquBGLxVy3TSaTikQiMk13k0/S6bSy2ayi0ahvMSwrUJcTAABUGcuyPI2XTNMM/fhKIg/yKH8MiTzIo/wxJPLwM4+5BOpu3MvFLrR3e4xhGJ7azzcGAACAXwrjGb/aS8EbXznj+BWDPMjDjxjkQR5+xFjsecwav2xnAgAAAAAAqACKGwAAAAAAINQobgAAAAAAgFCjuAEAAAAAAEKN4gYAAAAAAAg1ihsAAAAAACDUKG4AAAAAAIBQo7gBAAAAAABCjeIGAAAAAAAINavSHXBKp9Oe25umu/pMNpuVbdu+xwAAzN+JEycq3QVUsZtuuqnSXbhsmUzG01hmIcY+fseQyIM8yh9DIg/yKH8MiTzKnYdluS9ZBKq44bU44KW9bdu+x6C4AQCX59Of/rT+5V/+pdLdQBX63ve+VxXFDdu2PY9/wj6+KsQhD3fnn0+/yMOfGORBHn7EWOx5zCZQxY1oNOq6bTweVzQadV0ZSqVSsm3b1xheqkoAgOk9++yz+tSnPlXpbqCK/OVf/mWlu1A2lmV5GsuYphn68ZVEHuRR/hgSeZBH+WNI5OFnHnPhbhwAEDjvec97Kt0FAAAAhAgLigIAAAAAgFCjuAEAAAAAAEKN4gYAAAAAAAg1ihsAAAAAACDUKG4AAAAAAIBQo7gBAAAAAABCjeIGAAAAAAAINYobAAAAAAAg1ChuAAAAAACAULMq3QGneDzuqX0ymQxUjFQq5bU7AAAArqVSKU9jmUwmE/rxlUQeXpGHO+ThDXm4Qx7ezBWjtrbW9bkCVdyIxWKu2yaTSUUiEZmmu8kn6XRa2WxW0WjUtxiWFajLCQAAqoxlWZ7GS6Zphn58JZEHeZQ/hkQe5FH+GBJ5+JnHXAJ1N+7lYhfauz3GMAxP7ecbAwAAwC+F8Yxf7aXgja+ccfyKQR7k4UcM8iAPP2Is9jxmjV+2MwEAAAAAAFQAxQ0AAAAAABBqFDcAAAAAAECoUdwAAAAAAAChRnEDAAAAAACEGsUNAAAAAAAQahQ3AAAAAABAqFHcAAAAAAAAoUZxAwAAAAAAhBrFDQAAAAAAEGpWpTvgdPLkSddtM5mMampqXLe3bVuSZBiGbzGSo6Ou2wIAAHhh27ZGR0d1wcN4KZFIhH58JZGHW+RBHn7EIA/y8COG2zxWr17t+pyBKm546Xg8HlcsFpNpupt8kkqlZNu2otGobzFG6+t1zvXZAQAA3DMMQ/X19ar3MF46ffq0mpqaXLcP4vhKIg/yKH8MiTzIo/wxJPLwM4+58FgKAAAAAAAINYobAAAAAAAg1ChuAAAAAACAUKO4AQAAAAAAQo3iBgAAAAAACDWKGwAAX/3gBz/Q7373uwWNOfCEIcNw/Plsn0Z8iDNyZKDM5x3RwJHJM448v7k4D5/zCaQjAxpYwHDPPPOMxsbGFjAiAAAoB4obAABfffjDH1Zzc7M6Ojr8L3Kc6dNmw9Ba9cu27Yk//Td1qNHYXtab5JHnN6vxm0PlPKP6PtuoJ0tPee9uDTty8SufQDqyXUbroQUJ9cwzz6ipqUmHDx9WXV3dgsQEAADlQ3EDAOCr66+/Xvfdd5/6+vp8LnKMqO/RDu39Wr/sr7QWvdL6lWHtvrdLa5+ojnJAteVTSc8884waGxv14IMP6syZM3r88ccr3SUAADAPFDcAAL77+te/PvH3F1980Z8ix5lD2vNSm3Y/2DrNiw1qf9EuLnrkZ3lMPOrhLBSc6dNmY7P6jhS32X4k9/LI85vV2L5XeqlDjcZm9Z3JH3dke9HjI5ufH3F5ztysjY6XpL3tjS4eO2lQ+6O90lcPFc3eKH4cx9GvgpL+TeY8oO2O/Kb73sAThown+tT32ZL8iq5jacyRovZG0WyTwvlz/51yzY5sl9HaJalLa6f07fIVihoPP/ywRkZGFI1GtXXrVl1//fXlDQQAABYExQ0AgO8Kszcsy1I6nZbkQ5HjzJD2qkXN17loe2S7jKYOtQwUHvXoV+9X1xYXOLRXHd+Unso/CjLc16au1tzNecN9ezTc15Z/ZGSP2q/Lr4/RKvXbk+dsaW8sLnDMeM4Gtb84rN33Sm19w7JfbFfDXDlc16w2DWrojFQoIqw9MfkIy3Cf1NFUUnhp7VJvSc7F/ZvDVzs09Gj++IHeXCHm0cl8+r+2Vx2PFgozA9puNGrPPcMTj9MM9w1qbcnjNF2th7Tedp7zb3J9vr1T9kCvpF7127Y6b3ffzdmUFjUKn8fx8XFmbQAAEGJWpTvgFI/HPbVPJpOBipFKpbx2BwHzV3/1V5XuAlC1EonExI2kpKIiR19fn9rb24ten5d7m9XsotnA/+ySvtbvuGFuVedAr7paD2ngK60qzO/ofXSyyNBwx2a1aY+GzkitUwooIzr0/b3qHdijybkhuXMard/VwH2d8zinB4VZK6cd577vKe3+fqP2vDqi9vsaps/ZtvN/d7l2yL279VDh+NvXq1eSHPk0v69NOpH/4sghdd27W8P3TZZpCn168vmHtOe+3Pfa+h6avGa3r1evunIFm8u5HtP4yU9+oi996Us6f/78lM9ZNBrV1VdfrQcffLC8QcvsneFhWd/4hiLPPuv6mPHxcUWjUR97tTDII1jII1jmk8cdd9yhzs5OT8f4fa+WyWRCfz8okYdXc8Wora11fa5AFTdisZjrtslkUpFIRKbpbvJJOp1WNpv19D++1xiWFajLiXk4fPiwuru7K90NXCbDMGTb9sR/K9G2HOf3eoykWdt7aes8psBL++na/u53v9ORIzM/WxCJROY8/5xeGtKQNMeshxENnZDa7ikpg9y+Xr16MldokCS1uZsFIkka0tBLUtdLhrqmvNbr+LuXc3qQn7XyWNG5G7T+njZ1/DZXuJg2Z69uap57RkneyNCg9FKXGo2OKa+13TP595Zmt2e8fDU1NdMW0DKZjJYvX64777xzwfoyH7//xS+07P3v19IPf9j1MRcuXNCVV17pun0mk5FpmkX/788mm83Ktm3V1NT4FkMij8JjWzP9O1x4bbo85vpZcrl5uPlZdTnvh9ufubPFmOkci/VzdfjwYZmm6freayHuoyR56tN8YpBH+POYS6Duxr1c7EJ7t8cYhuGp/XxjIPzWrVundevWVbobQNX56Ec/WvRYSuHvHR0devzxx3X99dfrve997/wDXNc8+yyII9tlfLNZwy+un/74M0MalFzN/Jjp2N6B8j0+4Sbm3ns366nrJJWurZE39Nu9kh5boA5NE/ve3Rqe8RGbcu40M7ePfvSj+od/+Ac988wz6urq0ptvvjnxWiaT0a9+9Svt378/0Gtu/Oq557TiM59R/ec/7/qY06dPq6mpyXX7eDyuWCzmeuyTSqVk27anwanXGBJ5kEf5Y0iLN48777xz4t7IjYW4j3LG8SsGeVRHHrPGL9uZAACYweHDh/XTn/5U6XR6YpZbR0eHhoaG9Mwzz5TnhvK6dj32tb3q+N50O4iMqO+bXfmZBw1qvkna+9uSm2sva3ZMid2sFkmDQx7Wr7gsuXza7lmfKxwUrb8x2WbohNT2vmZpppxnky/YzFfz+9omZtIEyQMPPKAzZ87oe9/7nq699tqJ75umqS9/+csV7BkAALgcFDcAAL7r6pp8WKPsRQ2H1gd3q23KwqDSwBON6nipV/353VJaP9ErfXWtYweOAW1v7ZK+tl7T7bUynYbmFsfNe6se6mubXAxzIq7hYueTiTO6LkAU8nmssJ7Fdeu1+V7nYp7SyPN/o46X2rT5jlybXM5PTu3fEwOSmtV8r9T1zcnjB77Xob2u+j1DNvc9pl6VbFeb31nF9c4n0xZtyqO0yJHNZvX888/7tE0xAADwG8UNAICvCrM2tm7d6ltRY8J17dpjD2v3ibVFW57mdhHpdCxc2Sn79G4NthbarFXX1/qLt4qdS37xy8I2pbkdVKSOppK4bnY+ySsUXYq2TH2pQ43O7Vunyye/1W3/TZNtG9ul3adzO7lM5DzQUtw/FXJuUPuL/ep1xDr0if6i1UK8a1VnYReaQt/zO9S4fnSnULRpMrzt6uKBs8jR1NTEjikAAIRUoNbcAABUn9/97ncaGhpawLUMcjf67XM1u65de+wZWk332pTv5XYbca4133DfHtn3eYhX+r3bO2XbjjPOdr5ptH7Flv2VWRqUnr/46Cn5yLEAX+tXbNnTtHeamv8055zl+Knfc/lelsEDDzygBx54QM8884zGxsZUV1e3AFEBAEC5UNwAAPjqgQceqHQXANf4vAIAEE48llIGG/75HXW+llBk5UrV1NXp9QtZ3fbDi5XuFgAAqAK3/fCiXr+QVc1VVynS2Kgvv5bQZ37yTqW7BQBAoFDcKINvtyzRD8+l9fXam3X+r/+1th69pLuuYVIMAAC4fHddY2nr0Us6v3mrtkc+oFfOpfXND9dWulsAAAQKxY0yuOFdNXr2tqU6nH63Hrl5q+66xtLXP7Sk0t0CAABV4OsfWqK7rrH0yJoH9c/pd+vZ25Zq9RUM4QAAcOInYzkZRf8BAAAos9JFWAEAgBSwBUXT6bTn9qbprj6TzWZl27YvMU6+Y2vrsaTuNMe08egP9J+tfyO9ltB2Zm8AAIDL9OXXEnrlXFr/vf/v9Y8f+1+19ailXbfEtGrZ3L9O8WvsU+Dn+MqJPMij3DGkxZ1HNpt1fUyQ86iW94M8ZmZZ7ksWgSpuZLNZ39rb+a3l/Iix7fi41tfX6NETP9H5f/w/9ezf/q22/uyStnuKBAAAMNUr59J69ralyvyH/6EvfPB6We/fpP/82rheui0y57G2bYd2fFUahzzcnX8+/SIPf2IEOQ8vxwQ5j2p5P8ijPAJV3IhGo67bxuNxRaNR15WhVCol27Z9ifFP63LnHB24qMzYmLFURUwAACAASURBVD54pamffeIK13EAAABmUhhT/CqVkt55R//lZveLiZqmGdrxlRN5kEe5Y0iLNw9JqqmpcX1MUPOolveDPLx9dmfDmhsAAAAAACDUKG4AAAAAAIBQo7gBAAAAAABCjeIGAAAAAAAINYobAAAAAAAg1AK1WwoAAACA6uNll4ZIZO5tjkstWbJEhmF4Oubaa6/1NUZQ89i3b5+nvgU1j2p5P+aTRyqV8hRjsaC4AQAAACDUvN6ASt4KLvON4dVC5PHud7/bcwyveD/8jYHp8VgKAAAAAAAINYobAAAAAAAg1ChuAAAAAADgyoj6dvTI2HW80h1BiUCtuRGPxz21TyaTgYrBwi4AAMBPqVTK01gmk8mEfnwlkYdXQczDtu0Kri1wXNt79mnw1ke0Z0NDFcdcHEYO7lDj0avU332/WivdmQrJZDJKp9Oejgnrv1e1tbWuzxWo4kYsFnPdNplMKhKJuF6wJZ1OK5vNKhqN+hbDsgJ1OQEAQJWxLMvTeMk0zdCPryTyqIY8ipw9oM07j2mv41u9G7vV2eL6lIvGwK4erT1V+t067X54m9pXVqJH1WP6ayuF4foahhHI/8/9/vdqLoG6G/e6sqxpmq6PMQzDU/v5xgAAAPBLYTzjV3speOMrZxy/YpCH/3kUxsm537qPqe3WR2Q7ZjQM7HpOAy2L9zfxs6q7RcPb7lbhao0c3KHGnT3aw6yQy9K6pVu2pDDOsgnq/+cL8e/VbAJV3AAAAABQpc4e0N/kCxulN5GtW+6f0rZ4dkdzyWMIuRtSbezWQ+dyBZPSdoVCyoSjT8s4Ovnl1H7kztk1U8yzB7R552+0+eFtan7F8Vt/R/HBe0zvGjZsU//5Hq09+oL6bnbMMJjzmhWMqG/H0+qY6GbxTIXpH/soKQAMPidjv9T/8HI9ufOY9qpZ/d2f1FDhvKs2yd6yZjJiyXUpvQ4jB3eo8Y0bNLytUd91vAeT7UrfmzGt7elx5DRTruUx7SyPq30KNmGOzyOmoLgBAAAAwHcjv/yN9qpOu2+e/ea+cCPcu7Fbe/KPqgzs6tHanh1THhfo2t+jrlWbZHevUeGmfe2OA7liw4ZtsjdIrn4zny8MyDGjJBfzuZIbyjF17OzJzTzZMnnT3birUfaWNd5iXobWu25R26lj2vPLEbWvbHB/zQoFkLpbNNxdmA0yor5dBzSyZXJ2iDt/1JMvSY91b1JLzz49ueMF6cZHNKwX1Hj0hAa0Rq2FfpxqVn/3ttx1PHtAm3c+rc0quTZjx9TYU6fdD3fLXql8AeVpbV/Rrc6WNersXqNOLfSaG/lCkEqu146n1eFn2MHnZOwfKikSHdf2XcfV6igaoRi7pQAAAADw2YgOvTEm1d2g9bOuZXBc383P7nCuwdG6ZZN6NaaOV0p2qKi7RcMTN3sNWn9jnTR2XkMeezfwSu6G/ynHzXYu5pCePDhS3HjVJsdN+RqtXyXprWGVtFoQe88Py8s1K+TpfMxFalC758KGJI1JN35yosCwVzc4rt8fNXRW0tkDevKU1LvRUYhYebeeurVOe4++rIGSM/ZudBRiWm5Sr6TBc5W4snmDL6tjrE67753P9ZmvEfW9WlrYkKQ16qSwMSuKGwAAAACCYfCEuiS1rCi9lZy+iNB2Y0sZbjqP69Cp6c7VqOa6QgFhUu8HAnCDubJRE3UM19dspjznq06bnbNwrm6cct7cbJ1mrS9ZLLZhxVWaKIBMmNqu0gZ+PeSiIFdmZwe1Zywgn7OQ4bEUAAAAAAFSp+aZ7r7zszLK+lv0s8MalLS3ZH2MCb6vrTAP+T5PcnHN8sdMLYL4Z+j8mKauj1FQt2D9CJWR89qrOm0Ox9qmgUJxAwAAAIDPGtR8taRTv9Ghs5r/Npt1y9Vczm5Jk7MgQrRbRu4GuPDb/ROzty1cs3yeucc8FibP5uV10qmFWh+jSjQsV5uGNDQiKcDb0QYRj6UAAAAA8F3rB5oljWnPL2dZQ6HlJvVO2+ZyHqmY/vES96/Phx/nLMivyVB4jMP1Ncv36Y1B7+uD5B998Wr6x08ujx/nnEnz8mnWcBl82bHTjA/yRaiuXx+fsymKUdwAAAAA4L+W+9W/Kvf4x+aSRToHdj2XX1xyjR66tU57j76gvrPO1/epS816bF4zKwqzRn5cdE7n6+13NEun9k3p1/zNFXO+JrdxnVyk0+01y+c5dkyNu44Xn3PXgYmCR654MKRDhedeCjt3zEfLJ7W7bkwdO5+bsnjovDUsV9t0i8v6oOHmG9TmXFT27AFt3v9Htfn6RE3u/Zz6ecztloKZ8VgKAAAAgAXRuqVbdn6LT+f6Fr0bu9WZ/3vDhm0a1g417uyZ3G6zaOvS+cR9RLt3PK0OxznbnI+htNwvuyG3RWnxuht1U7afLVtMt8aOqbHn2OTXqzbJ3la82KTrazaR5z4ZPfsKDbX74W2T7Vru1/C5HWrc36Ou/ZLUrP7uRzS042nt8dZzSQ1q39at5l09U9fdmLIbiEsr79aejedl7Hfm0Oz50ZfcFrWOb0ysueJ4zydiFV7LbWmrXT3a673nrjVs2CZ7Ren/J7kcMTMjkRy3KxE4m80qnU7r0qV3dPHti1q9epWn4+PxuGKxmEzT3eSTVCol27YVjUZ9izH6ne/o3Le+pQ++/rrrGAgWwzD0ox/9SOvWrat0V4BF6b3vfa+eeOIJtbQEbLl0hNrGjRvV3d2tBx54oNJduSy/WrVKK7q6VP/5z7s+5vTp02pqanLdPojjK4k8qiGP2tpa1+0BzC6VSikSibhuH/Z/r06ePKUr3nWFli5dJsuyZowRqJkbJ0+edN02k8mopqbGdXvbztVwDMPwLUZydNR1WwDA9LZu3VrpLgCBZNu2RkdHdcHDeCmRSIR+fCWRh1tBzqO5udnTzRiAmQ0PDyuVSrluH+Z/r1avXu36nIEqbnjpeBAr2aP19Trn+uwAgFI///nPK92F0PjMZz6jL3zhC/rIRz5S6a5ggRiGofr6etV7GC8F6Tdv840hkUc15EFhAyifxsbGRTVzw61AFTcAAIvb8uXLK92FUDh8+LD6+/v1d3/3dxoYKNsSbQCABTBycIcaj8693Ubvxm518pSmJ1PW0ZjW/NdRmeq4tvfsm3snmVhUSo7PeTbe88tDcQMAgJD54he/KEk6cuSIDh8+zDpBABAiDRu2yd5Q6V5Up9Yt3VrYBSXXqLN7zcRiuKgstoIFACBEDh8+rJ/97GcTX3/pS1+qYG8AAACCgeIGAAAhUpi1UVCYvQEAALCYUdwAACAkSmdtFDB7A0DQZbNZ121TqZTGx+den8ApkUh4iiFJb775pq8xgprHpk2b9I1vfMN1+6DmUS3vx3zyKOw0gmIUNwAACInSWRsFzN4AsNjN52bP603rQtxQLkQef/rTn3Tp0iXPcbzg/fA3BqZHcQMAgBBwztoobJvm3AaO2RsAAGAxo7gBAEAIfPGLX5RhGJKkW265RfX19frUpz6lZcuWybIsZm8AAIBFjeIG4PD73/9eH/nIRyrdDQAoUpi1sXbtWv3oRz/ST37yEy1dulR//dd/rTNnzqizs1PLli1TT09PpbsKAABQERQ3AIf6+vqiad4AEASHDx+eKGqsW7eu6LW6ujo9/vjjOnPmjO6880794he/qFAvAQAAKseqdAec4vG4p/bJZDJQMVKplNfuAAAwp8cff3zONoUiB6pbKpXyNJbJZDKhH19J5OEVebizmPOYzzFBzKNa3g/ymFltba3rcwWquBGLxVy3TSaTikQiMk13k0/S6bSy2ezEImx+xLCsQF1OAABQZSzL8jReMk0z9OMriTzIo/wxpMWbh9djgppHtbwf5OE+j7kE6m7cy8UutHd7jGEYntrPNwawaJ09oM07j6llY7c6WyrdGQCoToXxjF/tpeCNr5xx/IpBHuThR4wg5+HlmCDnUS3vB3mUB2tuoDzOHtDmnh5tH6zymGHHNQMAAABQhQI1cwPlM3JwhxqPjjm+06z+7vvVWrEeLbyBXT1ae6r0u3Xa/fA2ta+sRI9CID/7Yu90r63aJHvLmoXuEQAAAADMieJG1RlR346n1TFWp90Pdztu4o9r+67jal1sN6d1t2h4291qyH85cnCHGnf2aM+tj2jPhoZZD12UVt6tPd13SyoUyK5adEUxAAAAAOFDcaPKjBx8IV/YKJ2dsEadW0rblszuKP3N/NkD2rzzN9r88DY1v+KYBeEoGJTOjti7v0dd+ye/7i1df2HwORn7h2aMOXJwhxrfuEHD2xr13Z596sp/v81RjPAc06Fhwzb1n+/R2qMvqO/mbcXFH0e8mWd4FIpHM7SbYd2JgV09WvtW/roNPidjv9T/8HI9ufOY9qpZ/d2f1FDhvKXvQ4Wv2cxKr1kOy20AAAAAWGgUN6rKiA69MSbV3aL1sz52UbhBb1Z/97b8b+VzN6rGjuGimQ7SmDp29qjt1kdkb2mYaNe4q1H2ljVq3dItW3K1mGSumCLHjJJ8zF0qvpkfO6bGntzME3ul8jf3T2v7ity5vcScTutdt6jt1DHt+eWI2lc2TBQP2m59RHa+GFCY4THkPHfhkY26WzTcXbhGI+rbdUAjW5zXzI0/6smXpMe6N6mlZ5+e3PGCdOMjGtYLajx6QgNao9YAXbMp8ueR45pNfA8AAAAAFhgLilaTs4PaMya13dgy+4324Mv52R3Oxw3WqHNjszR2TN8tXWxy1SbHIxxrtH6VpLeGNeKpc8f13aNjarv1c47ZEPmYp36svrPFrXs3OmZDtNykXkmD57xFnMve88OSRtT36lBJjlLDhs9pd53U9eqBiTwHXskXNoqKPw1q91zYkKQx6cZPTlz/vbpBT03E/6OGzkpBvGYFhWvxFI/2AAAAAAgAihuL0MCvhyRdpebS2R0z3BD3fqAM63QMnlCX6rT55pKb4YblatOYhopCNmu9n882rGycfHSiUBBa3ljSqEHrb6yTxs4r90DIcR065aJw5FrJtbi6cep5g3TNipT7WgAAAADA5eGxlMWqbrmaZ3gpN6OhvLetI+f+qMIjLh3TvL6g6zScHVbp5JSWFTPlm5tF0arcMTO3K79AXTMAAAAACDCKG9UkPyOh641BjWyYz6MSOVNnMVy+hhVXSVIwtmEdOa+9KsxIGZ6jcWGGS+7a5ma1LEyBI1DXDAAAAAACLFDFjXQ67bm9abp7siabzcq2bd9jVNYarV+1Tzr1Gx06qxlviFs/0Cztn6ZN/jGI3aWPQbixco6b/4blatNQ7lGKct2ozxVzWvk1NiYe42jR5rpj6vj1cXW2rClqd+iNMWnVx/LrYjSquW6+haPcYxyq83RQgK5Zqfy1KJnhM/DKMe0VM0oAwE+ZTMbTWGYhxj5+x5DIgzzKH0Na3Hlks1nXxwQ5j2p5P8hjZpblvmQRqDU3stms6z9e29u27XuMyhc3pNYtm9SrMXXs3FGy4ORxbd91PPfXlk9qd92YOl464FgU9Li27x+SVn1snrMEcje8e4++rIHpXl55tx5bJXXtL+3X5Zgj5hST27j2biwsptqg9juapVP7tN3xrMrElrp3FQoe+XZjx9RYuI6Fc+5yXMfC7JlfF9pMv12qK4G4ZtPJr0fiWNR05OAOrX2rTm1l6iUAYHq2bXse/1TD+Io8yIM8ypuHl2OCnEe1vB/kMft53QrUzI1oNOq6bTweVzQadV0ZSqVSsm3b1xheqkr+WaPO7jVav6tHa4vWamhWf/f9+b83qH3bI9KOp9XYM7l1p3MrVO8a1L5tk4Z69mltT8/Ed3sdW462bunWcH6L1aI1JKbsQFK+mLktUh3bk67aJHtbyQKpLffL1nMy9veoa3/hm7nr1VraruGANu/cJ6NnX6Hz2v3wNkff16jz4WENOtr0buzW8LkdanzDc4ILf80K291OvDI22W7VpontZxs2bFP/ecdnbNUm2duk7RPXBQDgB8uyPI1lTNMM/fhKIg/yKH8MafHmIUk1NTWujwlqHtXyfpCHt8/ubIxEctwu29k8yGZzU6EuXXpHF9++qNWrV3k6Ph6PKxaL+f4h8BJj9Dvf0blvfUsffP111zEAAJiP66+/Xj09Pdq6dWulu4IF8qtVq7Siq0v1n/+862NOnz6tpqYm1+2DOL6SyIM8yh9DWrx53HnnnVq3bp16HL/omk1Q86iW94M85s7j5MlTuuJdV2jp0mWyLGvGGIF6LAUAAAAAAMArihsAAAAAACDUKG4AAAAAAIBQo7gBAAAAAABCjeIGAAAAAAAINYobAAAAAAAg1ChuAA7XXHONfvrTn1a6GwAAAAAADyhuAA6jo6NKpVKV7gYAAAAAwAOKGwAAAAAAINSsSnfAKR6Pe2qfTCYDFYPf+AMAAD+lUilPY5lMJhP68ZVEHl6RhzuLOY/5HBPEPKrl/SCPmdXW1ro+V6CKG7FYzHXbZDKpSCQi03Q3+SSdTiubzSoajfoWw7ICdTkBAECVsSzL03jJNM3Qj68k8iCP8seQFm8eXo8Jah7V8n6Qh/s85hKou3EvF7vQ3u0xhmF4aj/fGAAAAH4pjGf8ai8Fb3zljONXDPIgDz9iBDkPL8cEOY9qeT/IozxYcwMAAAAAAIQaxQ0AAAAAABBqFDcAAAAAAECoUdwAAAAAAAChRnEDAAAAAACEGsUNAAAAAAAQahQ3AAAAAABAqFHcAAAAAAAAoUZxAwAAAAAAhBrFDQAAAAAAEGpWpTvgdPLkSddtM5mMampqXLe3bVuSZBiGbzGSo6Ou2wIAAHhh27ZGR0d1wcN4KZFIhH58JZGHW+RBHm7bj42NuT4mqHlUy/tBHrPnsXr1atfnDFRxw0vH4/G4YrGYTNPd5JNUKiXbthWNRn2LMVpfr3Ouzw4AAOCeYRiqr69XvYfx0unTp9XU1OS6fRDHVxJ5kEf5Y0iLN48lS5aorq7O9b1XUPOolveDPNznMRceSwEAAAAAAKFGcQMAAAAAAIQaxQ0AAAAAABBqFDcAAAAAAECoUdwAAAAAAAChRnEDAAAAAACEGsUNAAAAAAAQahQ3AAAAAABAqFHcAAAAAAAAoUZxAwAAAAAAhJpV6Q44xeNxT+2TyWSgYqRSKa/dAQAAcC2VSnkay2QymdCPryTy8Io83FnMecznmCDmUS3vB3nMrLa21vW5AlXciMVirtsmk0lFIhGZprvJJ+l0WtlsVtFo1LcYlhWoywkAAKqMZVmexkumaYZ+fCWRB3mUP4a0ePPwekxQ86iW94M83Ocxl0DdjXu52IX2bo8xDMNT+/nGAAAA8EthPONXeyl44ytnHL9ikAd5+BEjyHl4OSbIeVTL+0Ee5RGo4gYAAHDn5z//uZYtW1bpbgAAAAQCxQ0AAELoPe95T6W7AAAAEBjslgIAAAAAAEKN4gYAAAAAAAg1ihsAAGBRGNjVI2PHAY1UuiMAAKDsKG4AABaFStzYcjPtHdcMAADMBwuKAgAq4Li29+xTl+M7bbc+oj0bGirWowV39oA27zymvaXfX7VJ9pY1lehRKAzs6tHaU9O9UqfdD29T+8qF7hEAAAgCihsAgIU1+JyM/UNTbuJHDj6nvrP3L7qb096N3epsKXyVK/oYPSfU332/WivZsYBq3dItW1LhWg0utqIYAACYFsUNAMACOq7t0xQ2JKlhw/1qL21bNLtj6m/mB3b1aK02yb5ruGgWxETBYMrsiGNq7Dk2eYK6WzS87W5N3hqPqG/H0+oYmylmrk/a2K2Hzu1Q49FCw+bJYoTnmE5r1PnwsAZ3HtPaXcdLij/OeJp5hkeheDRDu4FdPVr7Vkkf8n1u2ditzpbcNdhz4yN67PzTWnsqP6tmxcv585Zek0pfs5lNuWa57gEAgCoUqOJGOp323N403S0bks1mZdu27zEAALMYPKEuSb0fmOOxi/wNetutj8jO/1Z+5OAONe7s0VDRTAdJp/bJONWs/u5u7Sm0279DzQ3b1L7ybu3pvlvSDDf1RfLFlFWbZG9b44i5QyopqnTt78m1616jws392h0Hcuf2FHMaK+/WY6uOae+pExrQGrVOFA+a1d+9LT+bIz/DY8dw0bkLj2wUzQYZfE7bB9cUXzM33nhBT974iIaXv6DGN17Q5qNXqb97kw717NOeX46ofWVDcK7ZNHLXwnnNCue+jJMGQCaT8TSWWYixj98xJPIgj/LHkBZ3Htls1vUxQc6jWt4P8piZZbkvWQSquOG1OOClvW3bvseguAEAsxv49ZCkZq2f9UZ7RH2v5mZ3OB83aNjwOe1+42l1vHpAD7U4b3zrtPvhyUc4Gm6+QW1Hj2loRJKHR1xGDv5YXWpWv2OWw0TMV46r3TlLou4WDU983aD1N9ZJR89rSLqsG/Jif9TQWal15GV1jBXnKK1R58YT6tp/TN8dvHtilsqTpYUNSWq5X53ziL537Cr1b2iQDkoaG1PLxm1q1XEdkrT3/LCkhgBes7yJa1F9j/bYtu15/BP28VUhDnm4O/98+kUe/sQIch5ejglyHtXyfpBHeQSquBGNRl23jcfjikajritDqVRKtm37GsNLVQkAMIOzg9ozJrXd2Fjywgw3xHU3aP1lr9MxokNvjEmrPlZyM9yg5qslvTWsEa2ZiNl2Y0v5b8gdmpfXSflFMwsFoebSHFtuUu/+IQ2eG5HUoJFf/kZ71azHvM7QmMmqm9Qq5XctqVPzlISDdc2KelbuaxEglmV5GsuYphn68ZVEHuRR/hjS4s1DkmpqalwfE9Q8quX9IA9vn93ZcDcOAAiklhUz3QrnZzSUdeHRYQ2NSRrbJ6Nn39SXF3idhqHzY8VB65areYa2hVkUQ+fHpLobZmxXfsG6ZgAAYHGjuAEAWDC5GQlDOjQotc77t+pXTZ3FcNka1Vwn6eogbMM6oqG3NDEjZWiO1m3LczNcctfWp8c8phWkawYAABY79/NSAAC4TA0336A2SV2/Pj5zo5Ut2lw3XZvCYxA3zWsdheblddLY+RmKBc5HKcpn9pgzGHxZHWOTj3G0fqBZGvuNDp0tbXdCXarT5ptzpYyGFVdJyhWOvMo9xuFVgK5Zidy1yM3wmZBfhwMAAFQnihsAgIWz8m49dWtdboeTXcXFi5GDz6nvrCQ1qP2OZunUPm0fdL7+Qm5hzbvmN0ugcPP/5MHpb8Vb77pFbWPH1LhrlsJLmWNOUdjGte4WPVVYTLXlk9pdN6aOlw44igiFLXU/NrkjScsntbtO6tq/I38dJ8/pvI654sFksWTa7VJdCsQ1m07LTerVmDpeKfTruLbvPCbV8awMAADVisdSAAALqmHDNtk3H9DmncVrNbTd+oj2TNyo3y9bz8nY36Ou/YUWzervvozdL1ru1/C5HWo8+rSMo/nv1Tm2HF15t/Z0N+a2WC1ZQ2LKDiTliqn8FqkTOdZp98PdRVuoSg1q3/aItONpNfYcm/iuc5vcyXbdat7Vo7U7e9RR+PaqTbK3OFpt2Kb+8442dbdouLtR351u3Yy5VOCaFba7nTDRrk67J7afXaPOh4c1OPEZy13Xh365Q3vfmEefAABA4BmJ5LhdicCFvZUvXXpHF9++qNWrV3k6Ph6PKxaL+b6qrJcYo9/5js5961v64Ouvu46BYDEMQz/60Y+0bt26SncFAIAiv1q1Siu6ulT/+c+7Pub06dNqampy3T6I4yuJPMij/DGkxZvHnXfeqXXr1qmnp8dV+6DmUS3vB3nMncfJk6d0xbuu0NKly2RZ1owxeCwFAAAAAACEGsUNAAAAAAAQahQ3AAAAAABAqFHcAAAAAAAAoRao3VLi8bin9slkMlAxUqmU1+4AAAC4lkqlPI1lMplM6MdXEnl4RR7uLOY85nNMEPOolveDPGZWW1vr+lyBKm7EYjHXbZPJpCKRiOvVWNPptLLZrKdVZb3GsKxAXU4AAFBlLMvyNF4yTTP04yuJPMij/DGkxZuH12OCmke1vB/k4T6PuQTqbtzLxS60d3uMYRie2s83BgAAC+Ev/uIv9IUvfEGf+9znKt0VLKDCeMav9lLwxlfOOH7FIA/y8CNGkPPwckyQ86iW94M8yoM1NwAACKE//OEPSiQSle4GAABAIFDcAAAAAAAAoUZxAwAAAAAAhBrFDQAAAAAAEGoUNwAAAAAAQKhR3AAAAIAkdn4DAIQXxQ0AAAAUsSvdAQAAPKra4oYtKZGpdC8AAADCJWNL6WylewEAgDdVWdxIZqU3L2WVyPJ7BwAAAC8ytq0341mNpXLjKEZTAIAwsCrdgXKxbckwpLfGbV1I8WMYAADgcoyN27qYslUfMxSrYS0OAECwBaq4cfLkSddtM5mMampqZBiGaixL6ayt0aStccc0ygtRQ3+ypHQ6LdvOFTy8LJRViOFWcnTUdVsAAAAvbNvW6OioLngYLyUSCU/jK0myayydjU/+ouiUpCsjhq6KGrJtW5l0uqhPkr/jK8l7Hl5jkAd5+BEjqHkkEgmNjY25PiaoeVTL+0Ees+exevVq1+cMVHHDS8fj8bhisZhM09SFlK2xlK2GkgkbdVFDdZHcxUqlUrJtW9FodF4x3Bitr9c512cHAABwzzAM1dfXq97DeOnMmTO67rrrXLdPJBKSFZGVnDrYrDGk+iWmYo5h0UKMryTp9OnTampq8i0GeZCHHzGCmseSJUtUV1fn+t4rqHlUy/tBHu7zmEto19wwDEO2pN8nbb01bmuu5TUMw/C8vRnboQEAgDDz+ps6SbI1/fgnbUvD8azeGrdZhwMAEDiBmrnhRTIrjVzKSsbM9ZmxcVtj47kfv+l0VrZtKxJxv/x3IpFVNJXVqneFtgYEAAAWmfGsPfFYyfA7WSXf8Tj2iWZn/c3bhZStS2lb9UtM1RjGxNRiAAAqKVR37YUfnW+N2xqOZ+ecrbFQHjx6SW0/fUep5hu05MYb9f03U/rzg29XulsAAKAKbi2J3AAAIABJREFU/PnBt/X9N1Na8q/+lVLvXa22n76jf/v/xivaJ+csDjHTFQAQAKEpbtiS0llbZ+PZwO2G8u01tbJt6d/rg/qnDQ+p87WEtn9oSaW7BQAAqsD2Dy1R52sJ/dOn/63+febPZNvSNz8cjHHGhZStNy9llXQ/OQQAAF+E5rEUQ/kCR7DqGpKkd0UMPXfbUn3mlYT+/vr1+uKfxXTPtZFKdwsAAFSBe66N6O2Urb/Tx9Vgp/R/3bZUV1jBmS2RlZTOSlGDSRwAgMoJzcwNSYqahq6rNRQNYK9/+Pu0RuyoViQv6AdvpvR2wGaXAACAcHo7ZesHb6a0InlBI9mIfvj79NwHLZCoKV1ba2qpRWEDAFBZASwTzM40DK2sNQP1G4uDw2l1vpbQVyJD+vsf75BtS1uPXqp0twAAQBXYevSSbFv63/7xCX1lyb+o87WEXh6pfIHjykhuTGZKM+yvAgDAwgnNYymllscMjZuG3krN3KYuaqgukvtxm06b+d1S3NdzEjWmoi6miXz/zLi+vWaJPnzw5zr38gH9H//tv+pLryVcxwEAAJjJdUtr9F8+tERD97+sT6z7qOo/nlu8/JMN0w/joqah65flxj+xZaYal3kb+9iWqXPJmduYhlQfM7XElNJpW2JjWABAAIS2uGHbtq6wDC2xDI0k7Dl3TrFt2/NWZW7b/++3LJUkjSaTstNpLauRvr0mGAt9AQCAcHOOKezxcX28IaKPN7hb2yuTyXiOZ8jWTHMxoqa0Yokp02C2BgAgWEL3WEqpIK/DAQAAUElef7Ezm8JjKDUUNgAAARSomRvxuLc925PJ3JxJwzB0tSGdT9u66NhOJZE1lMgYRT/Y5xvDjVRqlmdkAAAALlMqlfI0lslkMp7aG4ah8fFxJRKTY6eJx1AytmY6lZ/jK8l7HvOJIZGHW+ThTRDzmM8xQcyjWt4P8phZbW2t63MFqrgRi8Vct00mk4pEIjLNySkbK6PSxbSt88ncD+Ro1FB0Ys2NtLLZrKLR6GXFmI1lBepyAgCAKmNZlqfxkmmantqPj48rEokomn+aZa7HUBZifCV5z8NrDPIgDz9iBDUPr8cENY9qeT/Iw30ecwnU3biXi11oX3rMlVFpiWVrJGHLNA2ZZu5HsWEY07afT4yZGOyBBgAAfFQYz/jVfvIYQ1dGDF0dnX1ssxDjK2ccv2KQB3n4ESPIeXg5Jsh5VMv7QR7lEajiRrnk1uGQEtlK9wQAACBcTMPQiiWmlpjsggIACI+qLG5IuR/MS2sq3QsAAIBwsQwpYkoGy4YCAEKEPUYAAAAgaXJ3FcoaAICwobgBAAAAAABCjeIGAAAAAAAINYobAAAAAAAg1ChuAAAAAACAUKO4AQAAAAAAQo3iBgAAAAAACDWr0h1wSqfTntubprv6TDablW3bvsfA/9/e3QfJcZ93Yn+6d3YWS1GWIgsWIGEdgdCLHVu6MxOfCTg6X3iiXCoptgiYtAiczkex4iRWVVzFsHI5A6QTErDPVTraTlknKS7Jli0sZLEA3RWTHG35WCrrhIWdHK9CnU/SiTB8WlgEBZXiI0XMDual88fsArPv3YtpbPfu51OFErX763762zvT85tneroBgLL0er1Cc5mbMfcpu0aEHHKMvkbE9s7R7/dzL1PlHFvl7yHH6hqN/C2LSjU3ijYHioxfuG97mTU0NwCAMmVZVnj+U/f51UIdOfKtfyPbJUc5Naqco8gyVc6xVf4ecoxGpZobzWYz99hWqxXNZjN3Z6jT6USWZaXWKNJVAgAoqtFoFJrLpGla+/lVhBxyjL5GxPbNERExNjaWe5mq5tjY32Mmms/87Yg7yqkRsX0fVzcjx3pccwMAAIAt7lyMT/zEZm8EJdLcAAAAAGpNcwMAAIBqOHciIkmu/3tsZv4XM4P/f2548NKfzSxeNjlx7eeN5t+OJCJi//A6I+Kx4fGHIi5e/1XzV2+J9PipiHuHxpy6FHFxetVl2DyaGwAAAGy+cyci9h+LmMkisiwiOxvxyIFBQ2FdlyLuPRAx/fz8slnEo8fmGxn7o3v1TyKLGKz74f3z45OIL5+8Pn46IqaWNCt++e9FPDj/+5njEYd3RzwYQzXORDw4Pfp9QWGugAkAAMDm+/yxiEfPDl3wc/+ggRARERfWWfhCxBMRcffQjx7OVhsccfHpiCcORswevv6z+z4S8bndEV+8FHHfrsHPfubT17fnjjsH//vg0DJvOhjx5XU2jZvCmRsAAABsssuDJsGb9m5w+f0R0wcHZ1Ys+krKKi5eiIjbI/YM/3BXxN0HI54baqS87Y0b3B5uNs0NAAAA6u++09e/zhLH8jU5lnruTCmbRvk0NwAAANhkOyPeFovPmljPxb9c5Rf7Fzc5zq0wZM/eiHhmycVAL93g2SNsJs0NAAAANt9dxyMe+fDihsNjC3c32RtxT0Q8fv3incnv/r2hgTPX72ay4NzTEXF8/poZb4zsUERcmP/9njsj7llyMdBTHxpch+Mdu0YcjJtBcwMAAIDNd8fRiJnbI6aGbr0aZ+fvbrIr4rNnI544EpEkMXnLLZG8818NLbw/Yvbk0DU3koj9z0TMHp3//a7Ifvp9g9/fOz2/vizibUeujz8cEbOnl1yHg7qo1N1SWq1WofHtdrtSNTqdTtHNAQDIrdPpFJrL9Hq92s+vIuQoSo58tnOOjSxz03L8jQcjrjy4tPj8f/zNiCtXFv/uypWIaEW0IuJ7717++4XfRUT8zHTEzyxZ50NXIh5aZfw/urJK/aEx7/t0xPuuj9nOj6syckxOTuZeV6WaGxMTE7nHttvtGB8fjzTNd/JJt9uNfr8fzWaztBqNRqV2JwCwxTQajULzpTRNaz+/ipBDjtHXiNi+OYouU9UcW+XvIUf+HOup1LvxIjt7YXzeZZIkKTR+ozUAAMqyMJ8pa3xE9eZXw3XKqiGHHGXUqHKOIstUOcdW+XvIMRquuQEAAADUmuYGAAAAUGuaGwAAAECtaW4AAAAAtaa5AQAAANSa5gYAAABQa5obAAAAQK1pbgAAAAC1prkBAAAA1JrmBgAAAFBrjc3egGHnz5/PPbbX68XY2Fju8VmWRUREkiSl1Whfvpx7LABAEVmWxeXLl+PFAvOlubm52s+vIuTISw458o7/67/+69zLVDXHVvl7yLF2jn379uVeZ6WaG0U2vNVqxcTERKRpvpNPOp1OZFkWzWaztBqXd+6MF3KvHQAgvyRJYufOnbGzwHxpdnY2pqamco+v4vwqQg45Rl8jYvvm2LFjR7z61a/O/d6rqjm2yt9Djvw51uNrKQAAAECtaW4AAAAAtaa5AQAAANSa5gYAAABQa5obAAAAQK1pbgAAAAC1prkBAAAA1JrmBgAAAFBrmhsAAABArWluAAAAALXW2OwNGNZqtQqNb7fblarR6XSKbg4AQG6dTqfQXKbX69V+fhUhR1Fy5LOdc2xkmSrm2Cp/DzlWNzk5mXtdlWpuTExM5B7bbrdjfHw80jTfySfdbjf6/X40m83SajQaldqdAMAW02g0Cs2X0jSt/fwqQg45Rl8jYvvmKLpMVXNslb+HHPlzrKdS78aL7OyF8XmXSZKk0PiN1gAAKMvCfKas8RHVm18N1ymrhhxylFGjyjmKLFPlHFvl7yHHaLjmBgAAAFBrmhsAAABArWluAAAAALWmuQEAAADUmuYGAAAAUGuaGwAAAECtaW4AAAAAtaa5AQAAANSa5gYAAABQa43N3oBh3W638Pg0zdef6ff7kWVZ6TUAAMrS6/UKzWVuxtyn7BoRcsgx+hoR2ztHv9/PvUyVc2yVv4ccq2s08rcsKtXcKNocKDI+y7LSa2huAABlyrKs8Pyn7vOrhTpy5Fv/RrZLjnJqVDlHkWWqnGOr/D3kGI1KNTeazWbusa1WK5rNZu7OUKfTiSzLSq1RpKsEAFBUo9EoNJdJ07T286sIOeQYfY2I7ZsjImJsbCz3MlXNsVX+HnIUe+yuxTU3AAAAgFrT3AAAAABqTXMDAAAAqDXNDQAAAKDWNDcAAACAWtPcAAAAAGpNcwMAAACoNc0NAAAAoNY0NwAAAIBa09wAAAAAaq2x2RswrNVqFRrfbrcrVaPT6RTdnLjvvvsKL7NdXb58Of78z/+81BpjY2Nx/Pjx+PjHP15qnZvhve99bxw5cmSzN4MacByqp+985zvxsY99LJ566qnN3hQKete73hX333//hpbtdDqF5jK9Xq/286sIOfI6derUTTkmzM3NxY4dO0qvU7btmuNrX/tafOc734mvfOUrJW5Vcdv171FVc3Nz8Qd/8AeFlinjuDs5OZl7XZVqbkxMTOQe2263Y3x8PNI038kn3W43+v1+NJvN0mo0GsV35xe+8IV43/veV3i57ejVr351vPnNb97szaiFJ598Mt773vdu9mZQE1/60pfiPe95z2ZvBgVpXtbTH/7hH8a73vWuDS/faDQKzZfSNK39/CpCjrw10jSNmZkZcwDWdPfdd2/2JlADZ86cqdxxdz2Vam4UeXFYGJ93mSRJCo3faI2N+Imf+Il4//vfv6FlYSVPPvnkZm8CNXPgwIH4wAc+sNmbAVvebbfddkPLL8xnyhofUb351XCdsmpspRwRER/96EcL1QAY9pnPfCbOnDlTyePumvVHtiYAAACATaC5AQAAANSa5gYAAABQa5obAAAAQK1pbgAAAAC1prkBAAAA1JrmBgAAAFBrmhsAAABArWluAAAAALWmuQEAAADUWmOzN2DY+fPnc4/t9XoxNjaWe3yWZRERkSRJaTXaly/nHgsAUESWZXH58uV4scB8aW5urvbzqwg58vr2t799LQvAjciyrBLH3X379uVeZ6WaG0U2vNVqxcTERKRpvpNPOp1OZFkWzWaztBqXd+6MF3KvHQAgvyRJYufOnbGzwHxpdnY2pqamco+v4vwqQo68NV772tcWatAArCZJksq9P1+Pr6UAAAAAtaa5AQAAANSa5gYAAABQa5obAAAAQK1pbgAAAAC1prkBAAAA1JrmBgAAAFBrmhsAAABArWluAAAAALWmuQEAAADUWmOzN2BYq9UqNL7dbleqRqfTKbo5AAC5dTqdQnOZXq9X+/lVhBxF1g8wKlU47k5OTuZeV6WaGxMTE7nHttvtGB8fjzTNd/JJt9uNfr8fzWaztBqNRqV2JwCwxTQajULzpTRNaz+/ipAjb40i2wKwnqodd9dTqXfjRQ/IaZrmXiZJkkLjN1oDAKAsC/OZssZHVG9+NVynrBpbKQfAqFTxuLtm/ZGtCQAAAGATaG4AAAAAtaa5AQAAANSa5gYAUF/nTkSSJJHcOx2Xbmgdh2L64ig3DID6uxTT9yaRJEmcOHeD63hsZpQbxgo0N7aRmccGT8xr/25kIriGS+dmRr7ehXUOMpyIVQ8N85PcjR98VjfzmIMSVNmlU4fWPj5skZp1Z58BN89MnEiSOHSqjBnvKi5Ox6GS5qLbndcP1qO5sR3MH2QPxNnIsuzav7NvOxK7R3yAuHTqUOx+/MII17h4nfvvPxkH41g8vcoLxsznj0XcczIeuGOkmzCo/XAW2cP7R79i2KJuVkO1ugaT6mTpv223H4qa3295m8l3HB28rn32cOwqd8Nga5mfHw4fn4bfkA/eSK5wDLuBs5yWr9Mb1ZV5/SjV/GM/X9NrVxz+7OC909ES3l8wWpobW96lmH7wSJx59OyyN+b7H34+Tt5zLA7U6WyEPXfGoXsijj2+0sF9Jp5+JOLg3Xea4MKmGkzKDjxyPM4ONVSzxyM+cTM/PauIg9PPDzWWn4+TcSR2+woEsIkunToUydSRiEXHpyzu/PzSZsPBODmbLRqTZafj8J7CFWP63iR2H44l67sznq7TPPQm8/oBxWhubHUXn47TTxyMk/evdMbBfCdyUdPj+vfKlnfUB29YTpxb3E1e6HpeOnUodh8+E/HEkgPv0k8Ghl/ELk7HoeRQTJ9bPGbhk4Pl69wVhx88HvHE6Xh6yYH90qkPx7E4Hg/dtytn3RMxvfAJwnwnfOknCsMd3eVfS9n4voKtbOaxA3EsjsfZ7GgsOvLsORxH79u1ZGyy6nMuYv45ee90XIrVnkvXf7778JmIOBYH1vlUcK3n+bVtemxm2THk+ieaxWtetysOf/ZsHI8zceTBJU3aZZ+irraepZ/oLR638mm7i0/NXsh4bV8sybv0dOrN3WerWLjWxkrH+AULrzEXlzzWcnz6eT2zT5bZYi5Ox4cOn4mD08/H6SXH5P0PLzluj8ilUx+KI08cjJOzSxsj++Po0rNi1zsW5nheX3/+HohjEXHm8O41j2HrHk9y1Lz286kjcSYiju1f/ayYjfH6MbLXj1yWzvNXbiqtP09ZzfXx5b4/yJdjq9Dc2OouXogzcXvszdVhn4kTye448rbrX185++ixOLDkoHFs/9Nx50IXeeZ4nDn8oZi+GLHrvtPx/PTBiHtOxvMLXf1zJyKZOh2HZoe6zl8+sORF40wceTziI/PrfH76YBzbP6i54jrvuDOOx5k4/cXhA8GlePpzZyIevXPwopyr7rE48txD109nPncidh++/fonzbMnI+azjXpfwdY1OIPq2nNxjXEnkiQOfPlkPL/oObd7+aTyiSOxO/lw7J0dfi7tnp/47I+jQ8eOiCVniyxpsMw8lqzwPN+9fGLxyIFIpi7EQ4uOSwsTgmI1l9sfD0wfXNSkXfgU9faZbMkxZckk5NyJwWT90eGvGW7wk88vfzg+9NxDkc0cj3jkw3HowdNxaPb5OHlPxLHPD7VqK7HPVrDwdZRssM2rOxNHppL48JsWPgE9G8efOBK719hnC431waem5bzZg81y6Yun40wcjEPvuFnnuc7P0e45FHeuMx/NfSxc53m9677T138eS8+AyBY1dS6dOhTJ/meGzig5G8cfWTpnXL/m/oevHyMPRsTxmWxRzdF8pcHrx0heP3K5/nWUbOb42kPXnKesZCZOJAsfBGXLmowjc3E6DiW740gMzbWyj0T8ztb9elOlmhvdbjf3v6Lj+/1+9Pv90mtU0j17Y2+eceeeHjzJhjro+x8+G8eXXOPi4PQD1w8i842GC6u8YZ/5/LE4OP2RoS79rjj8+Mk4+MiHFx1wjz94/bvSu95xKA7GM6uuc+HAfubwJ643EpacoZK77l3Xs1668MziMnsOx+nVTr0sYV/BlnDu6TgWi59bK1k40+rs8HUS9hyOj0wfjFjyPI2IOD4z9Fy84844HhHPXCj40nxxOj78SMTxmaGJ0HzNRceTiBicin193OC4NOrn78L6ZuIT82+khye/g2PKmTjyOwtbdimmHz8Wsexrhit88pnHExGHrp3Vdybi7qFj5pcvDCY+ldtnG/To2aHJ4/6489G4nnGpcyeuNTZKm3DegF6vV2hukmVZ7edXchRb/9ryNxpG5uLTcfqJPF8bznssnFfkeb1uzeE54/44Ov+mfdkHUiOpOQpeP6om/zzlUkzfu8oZriM28ztH4sw9J+P5Rdek2hWHH85/jaoqHHeLqFRzYyFgnn9Fxy8c7MusUdnmxhMXIs8lPi9deGaFRsjgwD385Lx9b96nw6W48OXlpwIunK533cGcZ5ZcNzjoXW8kXPri6Thz7YV6Y3V33fdQHB861W2tU8RGv69gO1mYXC9vvK48oTked47gE6/Bp5XL17Vr7+0RSxuqJU/8BzXnzTeElh8vlkyc598grNc4ym1JxpWOV1XaZzci9z774olI9h+rbGMjIiLLssLzn60wv5KjWI7RGZytcFMuApr3WDhvJMfCc0/HsZXOYtmzd8U31yM7/t4Arx9VlHeeciGm790dR54ov7ExqmsRVuG4W0TjBrKOXLPZzD221WpFs9mMNM3Xn+l0OpFlWak1Go1K7c6BPXvjYJyOCxcj9q94BsKJSB7fG89/9vAqKxg0CuJNGyl+IS48EWtPEjfakd1zOB569Egc+PxMHL0j4hOHz8TxmdPzT96N1h2c9nY0Fk5J3h3J4XXWs8iN7CvYht62d9UX3GcuXIq4Y7RvLi88dyYizsSB5NgKvz040lrrWXam2FpN3vkG9a6LFwankt/ECWCV9ln5zsSRw4MWeJUb041Go9BcJk3T2s+vIuTIW6PItuSz0nUyypTjWDjCaoNj8aCBc2SF39++ws82m9ePGnvkyOBxlves+htx8UI8Ezf+ela14+56KnXmBiXYczgeenSFU/ki4topavNvMHbtvX2FszwGjYKNPTH2xt57Is48N9pbwy7Yf9fxiEeejpn5r4hc75jeeN2F72o+P30wznzu6WWnG45+X8EWsWdvHIzF37ndiDKeR3vftNJ3dW/k6v8bN5j05fykZ2EStMoniWWq0j4r3+CuEGcfHVwI8MYv/gdVtCv2vi1WvDB7afbsjdsjVpxPFVLCG8LBWQQr3RGmurf+9PpRY4+eHVyT5Ykjsbvs2/rOP+8Kf4W35jQ3toH995+MgytcGGnmsfnToha+a3fHnYOvZTw2fCGgA0saB2tb/KZ//s4mjxxY4b7p+U9pXLmREBF3PDC4le3+Y0suXrixust/Pzh1fsXTuUawr2BLmr9dczzy9Jp3DLnz7oMrjlntNNY8VjzVtcDvN2JD65z/HvK149aKF0mOWHZK6fxEZUONo/lTl4uqzD67iQa3SY+hi9nB1rL/ruMRKx5zSqs4+IrEeg2VvMfCQtb5wKuMN/1lvqn0+jHydd50ew7H6Znjg4uQlnob5PnH/o02FWtGc2M72HM4Ti/cLWToO5ODuxQMf99rfxxdMu7AIwW/E7bwpn/hFk53HI1s5vii22ENrpp8A+u8Zv4NUqxwq9sN1N113+n5q0svLDO4G8rKX0kZwb6CLWn+4r2x/O5BcXE6Tsxfy+baNW6W3KJ5cHvCBzb2PJqfpK58plrMN0TPxJGpEX5ffL2aS12cjkNTR+LMogsSL1wkefHdlBYapg8NXbzugemDEY8cWHJNoJk4MbQfB5O/oYsbnxtcR2JDqrDPbrqh2y2OMjdUxR1H4+yjg2uTLb8tZzmP+WsXuJxa2jQcPn7lPRYWMX+mykoXB42YP8N51M3M+TeVyy6aeYO8ftTg9SOnO44O7vyy7O8xSvMf9i5rolyK6ce27t1SYq59NduMf1dac9mLL303u/TCC9lzz53Pirpy5UrW6/Vyj7969WrWbrdLrfGtj340+/Jb31qoxq5du7JTp04VWgbW84Y3vCH79Kc/vdmbQU1MTU1lv/d7vzfitT6fnbwnsoihf/eczJ5fNOZsdjwWjzk+s2Qt0weziOPZ2RWWOzi9eG1ZlmXZzPHFNZctm2VnH12yXRFZPHp28e+XbuvsyezgCtu3ds3l+VbKuDjrWvsrf8bF6zqenZ3/eyzss0UZ59c32K75v9uS2jdvn62+31asucq4azVX2YZl2ztzPIs4mJ2cXb79y35+g/bu3Zt98pOf3NCyX967N/vWJz5RaJlvfOMbhcZXcX6VZXLk9bu/+7vZnj178g1e9jxc/FxZdky69m/jz4nlz9v1jl/5jy0rHocGa1z2erT09WPFrMPrKlxz/de3tXn92NjrR07Xju/L/117bKwxZnh7881T5vfNo0tGPbp8f4zcshz5nr+nTp3Kvu/7vq9QqTKPu889dz679MIL2YsvfTe70ppbtceQzLWvjvqyyrn0+4Pbvly58nJ896Xvxr59txVavtVqxcTEROkXiipS4/LHPhYv/MZvxA9/9au5a+zevTt+/dd/Pd7//vfnXgbWs2fPnvi1X/u1OHJkpctjwWLf//3fHydOnIgPfOADm70psOXddttt8fDDD8f9999feNl/e9tt8bpjx2LnBz+Ye5nZ2dmYmprKPb6K86sIOfLW+NSnPhXHjh2L2dnZ3DUAlvrMZz4Tv/iLvxgvvPBC7mXKPO6eP/8Xcesrb41bbnlFNBqNVWv4WgoAAABQa5obAAAAQK1pbgAAAIUM7jKXrPvPbZWvs8/KMhMncuzXpOzbr96AmcdybH/yt+Jv5clZ6l1Yqq2x2RsAAADUy677Tkd232ZvRb3YZ2XZH0ezLI5u9mbcgP0PZ5E9vNlbUX/O3AAAAABqrVJnbrRarULj2+12pWp0Op2imwMAkFun0yk0l+n1erWfX0XIUWT9AKNShePu5ORk7nVVqrkxMTGRe2y73Y7x8fHct5rpdrvR7/cL3eKraI1Go1K7EwDYYhqNRqH5UpqmtZ9fRciRt0aRbQFYT9WOu+up1LvxogfkNE1zL5MkSaHxRWrc/2dX4j92svit294SO97ylvjcX3Xi6LNz8e/e/cpCtQAAlvrP/sVLceLtO+Jtb31rdN/4pviZmVa8diKN//2/WP/TrIX5TxFVmV+tVKesGlspB8CoVPG4u2b9ka1pG/vffmQysiziF+KH46l3PxBHn52LE2/fsdmbBQBsASfeviOOPjsXT7335+MXej8YWRbx+N80zwCAYZU6c6OuXjmexO/92C3x0/9yLv7pG++M//kHJ+LuN4xv9mYBAFvA3W8Yj5c6WfzjeGfsyjrxz3/slri14RN6ABjmzI0R+eNvdeNS1ozXtV+Mf/ZXnXipk232JgEAW8BLnSz+2V914nXtF+NSfzz++Fvdzd4kAKgczY0R+BfPd+Pos3Px8PiF+Kd/8puRZRE/92dXNnuzAIAt4Of+7EpkWcRv/R+PxcM7vhFHn52LP7qkwQEAwzQ3RuDTf3k1fvNHdsRds/86+n/0f8Xv33FL7N5h1wIAN273jjR+/45bInv6j+Kuv/o38Zs/siM+d/HqZm8WAFSKa26MwMn9t0RExOV2O7JuN25tJPGR/zz//XgBAFYzPKfIrl6Nu3aNx127XNsLAIY5vQAAAACoNc0NAAAAoNY0NwAAAIBa09wAAAAAaq1SFxQ9f/587rG9Xi/GxsZyj883xb8RAAAVxklEQVSyLCIikiQprUb78uXcYwEAisiyLC5fvhwvFpgvzc3N1X5+FSFHXt/+9revZQG4EVmWVeK4u2/fvtzrrFRzo8iGt1qtmJiYiDTNd/JJp9OJLMui2WyWVuPyzp3xQu61AwDklyRJ7Ny5M3YWmC/Nzs7G1NRU7vFVnF9FyJG3xmtf+9pCDRqA1SRJUrn35+vxtRQAAACg1jQ3AAAAgFrT3AAAAABqTXMDAAAAqDXNDQAAAKDWNDcAAACAWtPcAAAAAGpNcwMAAACoNc0NAAAAoNY0NwAAAIBaa2z2BgxrtVqFxrfb7UrV6HQ6RTcnIiKefPLJePLJJze0LMAoPPXUU/HUU09t9mYA6+h0OoXmMr1er/bzqwg5iqw/IuLIkSOFagCspArH3cnJydzrqlRzY2JiIvfYdrsd4+Pjkab5Tj7pdrvR7/ej2WyWVqPRKL47f+qnfqrwMrCe97znPZu9CdTIu9/97s3eBNg27rrrrhtavtFoFJovpWla+/lVhBx5a6RpGj/5kz9ZaJt6vV6kaRpJkuRe5uWXX45XvOIVpdXIsiyyLJMjJznkGHWNiIh3vvOdlTvurqdSzY0if6CF8XmXSZKk0PiN1ijq4x//eOFlAEbJcQjqY2E+U9b4iOrNr4brlFVjq+Q4cuRIHD58uNCbhVarFRMTE4W2a3Z2Nqampkqr0el0IssyOXKSQ45R14gY5KjicXfN+iNbEwAAAMAm0NwAAAAAak1zAwAAAKg1zQ0AAACg1jQ3AAAAgFrT3AAAAABqTXMDAAAAqDXNDQAAAKDWNDcAAACAWmts9gYM63a7hcenab7+TL/fjyzLSq8BAFCWXq9XaC5zM+Y+ZdeIkEOO0deIkEOO0deIkGPUORqN/C2LSjU3ijYHiozPsqz0GpobAECZsiwrPP+p+/xqoY4c+da/ke2So5wacshRRo3tnmMtlWpuNJvN3GNbrVY0m83cnaFOpxNZlpVao0hXCQCgqEajUWguk6Zp7edXEXLIMfoaEXLIMfoaEXKUmWM9rrkBAAAA1JrmBgAAAFBrmhsAAABArWluAAAAALWmuQEAAADUmuYGAAAAUGuaGwAAAECtaW4AAAAAtaa5AQAAANSa5gYAAABQa43N3oBhrVar0Ph2u12pGp1Op+jmAADk1ul0Cs1ler1e7edXEXIUJUc+chQjRz5yFLNejcnJydzrqlRzY2JiIvfYdrsd4+Pjkab5Tj7pdrvR7/ej2WyWVqPRqNTuBAC2mEajUWi+lKZp7edXEXLIMfoaEXLIMfoaEXKUmWM9lXo3XmRnL4zPu0ySJIXGb7QGAEBZFuYzZY2PqN78arhOWTXkkKOMGnLIUUaN7Z5jzfojWxMAAADAJtDcAAAAAGpNcwMAAACoNc0NAAAAoNY0NwAAAIBa09wAAAAAak1zAwAAAKg1zQ0AAACg1jQ3AAAAgFrT3AAAAABqrbHZGzDs/Pnzucf2er0YGxvLPT7LsoiISJKktBrty5dzjwUAKCLLsrh8+XK8WGC+NDc3V/v5VYQceckhRxk15JCjjBp5c+zbty/3OivV3Ciy4a1WKyYmJiJN85180ul0IsuyaDabpdW4vHNnvJB77QAA+SVJEjt37oydBeZLs7OzMTU1lXt8FedXEXLIMfoaEXLIMfoaEXKUmWM9vpYCAAAA1JrmBgAAAFBrmhsAAABArWluAAAAALWmuQEAAADUmuYGAAAAUGuaGwAAAECtaW4AAAAAtaa5AQAAANSa5gYAAABQa43N3oBhrVar0Ph2u12pGp1Op+jmAADk1ul0Cs1ler1e7edXEXIUJUc+chQjRz5yFLNejcnJydzrqlRzY2JiIvfYdrsd4+Pjkab5Tj7pdrvR7/ej2WyWVqPRqNTuBAC2mEajUWi+lKZp7edXEXLIMfoaEXLIMfoaEXKUmWM9lXo3XmRnL4zPu0ySJIXGb7QGAEBZFuYzZY2PqN78arhOWTXkkKOMGnLIUUaN7Z5jzfojWxMAAADAJtDcAAAAAGpNcwMAAACoNc0NAAAAoNY0NwAAAIBa09wAAAAAak1zAwAAAKg1zQ0AAACg1jQ3AAAAgFprbPYGDOt2u4XHp2m+/ky/348sy0qvAQBQll6vV2guczPmPmXXiJBDjtHXiJBDjtHXiJBj1Dkajfwti0o1N4o2B4qMz7Ks9BqaGwBAmbIsKzz/qfv8aqGOHPnWv5HtkqOcGnLIUUaN7Z5jLZVqbjSbzdxjW61WNJvN3J2hTqcTWZaVWqNIVwkAoKhGo1FoLpOmae3nVxFyyDH6GhFyyDH6GhFylJljPa65AQAAANSa5gYAAABQa5obAAAAQK1pbgAAAAC1prkBAAAA1JrmBgAAAFBrmhsAAABArWluAAAAALWmuQEAAADUmuYGAAAAUGuNzd6AYa1Wq9D4drtdqRqdTqfo5gAA5NbpdArNZXq9Xu3nVxFyFCVHPnIUI0c+chSzXo3Jycnc66pUc2NiYiL32Ha7HePj45Gm+U4+6Xa70e/3o9lsllaj0ajU7gQAtphGo1FovpSmae3nVxFyyDH6GhFyyDH6GhFylJljPZV6N15kZy+Mz7tMkiSFxm+0BgBAWRbmM2WNj6je/Gq4Tlk15JCjjBpyyFFGje2eY836I1sTAAAAwCbQ3AAAAABqTXMDAAAAqDXNDQAAAKDWNDcAAACAWtPcAAAAAGpNcwMAAACoNc0NAAAAoNY0NwAAAIBa09wAAAAAaq2x2Rsw7Pz587nH9nq9GBsbyz0+y7KIiEiSpLQa7cuXc48FACgiy7K4fPlyvFhgvjQ3N1f7+VWEHHnJIUcZNeSQo4waeXPs27cv9zor1dwosuGtVismJiYiTfOdfNLpdCLLsmg2m6XVuLxzZ7yQe+0AAPklSRI7d+6MnQXmS7OzszE1NZV7fBXnVxFyyDH6GhFyyDH6GhFylJljPb6WAgAAANSa5gYAAABQa5obAAAAQK1pbgAAAAC1prkBAAAA1JrmBgAAAFBrmhsAAABArWluAAAAALWmuQEAAADUmuYGAAAAUGuNzd6AYa1Wq9D4drtdqRqdTqfo5gAA5NbpdArNZXq9Xu3nVxFyFCVHPnIUI0c+chSzXo3Jycnc66pUc2NiYiL32Ha7HePj45Gm+U4+6Xa70e/3o9lsllaj0ajU7gQAtphGo1FovpSmae3nVxFyyDH6GhFyyDH6GhFylJljPZV6N15kZy+Mz7tMkiSFxm+0BgBAWRbmM2WNj6je/Gq4Tlk15JCjjBpyyFFGje2eY836I1sTAAAAwCbQ3AAAAABqTXMDAAAAqDXNDQAAAKDWNDcAAACAWtPcAAAAAGpNcwMAAACoNc2NEfitr1+Nb7b6kYyPX/vZZ2c7m7hFVMVHvt6Ob7b6i37mscFv/vt2zPWu//+53uBn4LHBSj77javX/jsZH49vtvrx0eeurrEEAGw/mhsj8GI3i7u/dCX+wxt/OG798R+PX3p2Lv7JV01Guf7Y+OqLgwaHxwYREV/4VjcOn3s5Xupk8VIni8PnXo4vfKu72ZtFBXhssJJ/8rWrcfTZubj1He+I/zD1g3H3l67ES51sszcLACqlsdkbMKzbLTaB63a7kab5+jP9fj+yLCulxj98SyNeutqP//75t8bfuPND8eylTnzizXPRPv9CoVpsPQ99z4548aVXxM/96cvxo7f24v9+acxjg/jE3lvjg1/fEX//7IsREZFlEZ/cdyXa5y9t8pax2Tw2WMkn3vQ98cDXd8S37vof4v+d2xd/d/dY/I9vaeSa05Q191lQ5vxqmBxyjLpGhBxyjL5GhByjztFo5G9ZVKq50e/31x+0wfFZlpVa47EfGo8/ff5KfOk1b44H/58/iP79vxz/9pvfLFSLrennDx+OmYO/Gk93/5N48N94bBAx9spXxi898AvxD951NCIifuf//F/iL3/7tyK76jTz7c5jg5WMv/718d986H+Nx3/kZ2N3XI3Hfmg8er3e+gvGYP5T5/nVcB058q1/I9slRzk15JCjjBrbPcdaKtXcaDabuce2Wq1oNpu5O0OdTieyLCutxi89Oxcvp834L2+5Gr/9oz8b+88dih+I76673NzcXKEc3W43siyL8aHre4y6RkTEN7/5zXj9619fWo3tkiNpNuOR2clofSeJ/+pVWfz2j/5s/Oi/+un4ofRKrXKMokaEHAs1Xh6fjA/++2a8Zf6g/o/v/eX45LF/FK/otGqVYz1yFM/xqv9035qPjRup4e9R3xxfj1vjt7/aiL9zay/+9UvN+OV/140Tb9+Rq06aprWeXy2QQ45R14iQQ47R14iQo8wc66lUc6OufuUr7fiXL3TjU3e8Il4z14rfuDQeH/xaEn/6zql1l+21WtGcmMj9IEg28CAoWiMiYiwimlPrb/9Ga2yXHL/6lbl4+v/rxqfuuCV+4HvS+KVn5+Lnzycxc+f31irHKGpEyLFQ4/1fejkijfj9H7slIiL+/p9eiQfOT8aZH39trXKsR47iOR44P7nmY+NGavh71DfHB//4u/F3X9eIX35rM/5irhH/4M9a8aqvtuN/+oGJ3NsHAFud5sYIvKaZxD9/xyti144kZv9jO37l7TvizEV3xCDiNc302mMjIuJX3r4jPvuXyz+BZXt57+vH4/D3j8eOscHj4tT+W2L6G44ZeGywsn/4AxNxcM94tFqteOsrB3OOP7nsQrMAMExzYwT+u33LP3U5uCf/6bJsXf/tCo+N//p1m7AhVMoH9y5+XOwYS5b9jO3JY4OVLJ1T7NqRxL1T5hkAMMytYAEAAIBa09wAAAAAak1zAwAAAKg1zQ0AAACg1jQ3AAAAgFpztxSAm+jSXBZzvWzZz3eMJdduGQwAABTjzA0AAACg1ip15kar1So0vt1uV65Gr9eTowA58pGjmKrmSJIk5lY5cyPGkpiLJLLs+u+qmqMoOfKRoxg58pGjGDnykaMYOfKRo5jtkmNycjL3uirV3JiYmMg9tt1ux/j4eKRpvpNPut1u9Pv9aDabpdWIiEjTVI4c5JCjjBp1yNHsZ9FfobnRHEui2Rx8LaUOOfKQQ44yasghRxk15JCjjBpyyFFGje2cYz2Vam4U2dkL4/MukyRJofEbqTFcp6wacshRRg05bl6ONM0izZY3N9I0iTRNFq2/yjmKrF+OfOSQY9Q1huuUVUMOOcqoIYccZdSQY2vkWLP+yNYEAAAAsAk0NwAAAIBa09wAAAAAak1zAwAAAKg1zQ0AAACg1jQ3AAAAgFrT3AAAAABqTXMDAAAAqDXNDQAAAKDWNDcAAACAWkvm2lezzSjc7/ej2+3GlSsvx3df+m7s23dbnD9/PvfyvV4vxsbGco/PskHMJElKqxERMTc3Fzt27CithhxylFFDjtHlSNM0kjSNbOjI2u/3I03TGEuTuDSXxVxv+WF3x1gSu3Yk0etnq+bo97o3LccoalTh7zGKGnLIUUYNOeQoo4YccpRRQw45yqiRN8e+ffvi/Pm/iFtfeWvccssrotFoRJqufI5GI3f1m2Dfvn25x7ZarZiYmFg12FKdTieyLItms1lajYiI2dnZmJqaKq2GHHKUUUOO0ee42o+4Mt/EmJubi2azGWmaRtrJortCS7mRRNw6Pji4d7vdyLIsxsfHIyLilrEkmutsnr+HHOuRQ44yasghRxk15JCjjBpy1D/HeirV3ADYKpppxLfbWVztR8xdzaIZWaTp6ifKdbOIv54/ka7bHZy9MZ5l0UwjXjWevzMPAADbkWtuAJQgi4jX7UgjvYG+RJpE7JxIQ2sDAADWprkBUIIkIsaSiFffwFkXr2kmMe4oDQAA6zJtBijR94wnsWOseIPj1kYStzacswEAAHlobgCUKIuInRNJoa+nNNOI753Q2AAAgLw0NwBKVPTrKQvX2QAAAPIzgwYoWZZlub+ecu06G9nqd1YBAAAW09wAuEnW+3rKwnU2Mo0NAAAoRHMD4CZZ6+sprrMBAAAbp7kBcBOt9PWUwXU2NDYAAGCjGpu9AcNarVah8e12u3I1er2eHAXIkY8cxVQ5R5Ik8cos4sV2P/rz3z553Y40elcjuku+jlLlHEXIkY8cxciRjxzFyJGPHMXIkY8cxWyXHJOTk7nXVanmxsTERO6x7XY7xsfHI03znXzS7Xaj3+9Hs9ksrUZERJqmcuQghxxl1KhTju9Ls/jO1cGFRl/VXHzWRp1yrEUOOcqoIYccZdSQQ44yasghRxk1tnOO9VSquVFkZy+Mz7tMkiSFxm+kxnCdsmrIIUcZNeS4+TlePRHRT7J4TXP511HqlCPP+uXIRw45Rl1juE5ZNeSQo4wacshRRg05tkaONeuPbE0AFPKaZhLuiwIAADdOcwNgE7mMKAAA3DjNDQAAAKDWNDcAAACAWtPcAAAAAGpNcwMAAACoNc0NAAAAoNY0NwAAAIBa09wAAAAAaq2x2RswrNvtFh6fpvn6M/1+P7IsK7VGRJReQw45yqghhxxl1JBDjjJqyCFHGTXkkKOMGnLIUUaN7Zaj0cjfsqhUc6Pf75c2Psuy0mss1JEj3/o3sl1ylFNDDjnKqCGHHGXUkEOOMmrIIUcZNeSQo4wa2z3HWirV3Gg2m7nHtlqtaDabuTtDnU4nsiwrtUZERJqmcuQghxxl1JBDjjJqyCFHGTXkkKOMGnLIUUYNOeQoo8ZGcqzHNTcAAACAWtPcAAAAAGpNcwMAAACoNc0NAAAAoNY0NwAAAIBa09wAAAAAak1zAwAAAKg1zQ0AAACg1jQ3AAAAgFrT3AAAAABqrbHZGzCs1WoVGt9utytXo9fryVGAHPnIUYwc+chRjBz5yFGMHPnIUYwc+chRjBz5yFHMejUmJydzr6tSzY2JiYncY9vtdoyPj0ea5jv5pNvtRr/fj2azWVqNiIg0TeXIQQ45yqghhxxl1JBDjjJqyCFHGTXkkKOMGnLIUUaNjeRYT6WaG0V29sL4vMskSVJo/EZqDNcpq4YccpRRQw45yqghhxxl1JBDjjJqyCFHGTXkkKOMGts9x5r1R7YmAAAAgE2guQEAAADUmuYGAAAAUGuaGwAAAECtaW4AAAAAtaa5AQAAANSa5gYAAABQa5obAAAAQK1pbgAAAAC1prkBAAAA1Foy176abUbhfr8f3W43rlx5Ob770ndj377b4vz587mX7/V6MTY2lnt8lg1iJklSWo2IiLm5udixY0dpNeSQo4wacshRRg055CijhhxylFFDDjnKqCGHHGXU2G459u3bF+fP/0Xc+spb45ZbXhGNRiPSdOVzNBq5q98E+/btyz221WrFxMTEqsGW6nQ6kWVZNJvN0mpERMzOzsbU1FRpNeSQo4wacshRRg055CijhhxylFFDDjnKqCGHHGXU2M451uNrKQAAAECtaW4AAAAAtaa5AQAAANSa5gYAAABQa5obAAAAQK39/+YhoP+ctYSDAAAAAElFTkSuQmCC;" parent="1" vertex="1">
          <mxGeometry x="40" y="20" width="1079" height="676" as="geometry" />
        </mxCell>
        <mxCell id="3Fpn5IZwIykw-nV9-C1c-4" style="edgeStyle=orthogonalEdgeStyle;rounded=0;orthogonalLoop=1;jettySize=auto;html=1;fontColor=#FF4314;" parent="1" source="3Fpn5IZwIykw-nV9-C1c-1" target="3Fpn5IZwIykw-nV9-C1c-3" edge="1">
          <mxGeometry relative="1" as="geometry" />
        </mxCell>
        <mxCell id="3Fpn5IZwIykw-nV9-C1c-5" value="mediaId" style="edgeLabel;html=1;align=center;verticalAlign=middle;resizable=0;points=[];fontColor=#FF4314;" parent="3Fpn5IZwIykw-nV9-C1c-4" vertex="1" connectable="0">
          <mxGeometry x="0.15" y="4" relative="1" as="geometry">
            <mxPoint as="offset" />
          </mxGeometry>
        </mxCell>
        <mxCell id="3Fpn5IZwIykw-nV9-C1c-1" value="&lt;br&gt;&lt;div style=&quot;color: rgb(212, 212, 212); background-color: rgb(30, 30, 30); font-family: Consolas, &amp;quot;Courier New&amp;quot;, monospace; font-weight: normal; font-size: 14px; line-height: 19px;&quot;&gt;&lt;div&gt;&lt;span style=&quot;color: #dcdcaa;&quot;&gt;ce_MmsHelper.uploadMediaFile&lt;/span&gt;&lt;span style=&quot;color: #d4d4d4;&quot;&gt;(&lt;/span&gt;&lt;span style=&quot;color: #569cd6;&quot;&gt;String&lt;/span&gt;&lt;span style=&quot;color: #d4d4d4;&quot;&gt; &lt;/span&gt;&lt;span style=&quot;color: #9cdcfe;&quot;&gt;type&lt;/span&gt;&lt;span style=&quot;color: #d4d4d4;&quot;&gt;, &lt;/span&gt;&lt;span style=&quot;color: #569cd6;&quot;&gt;String&lt;/span&gt;&lt;span style=&quot;color: #d4d4d4;&quot;&gt; &lt;/span&gt;&lt;span style=&quot;color: #9cdcfe;&quot;&gt;filename&lt;/span&gt;&lt;span style=&quot;color: #d4d4d4;&quot;&gt;, &lt;/span&gt;&lt;span style=&quot;color: #569cd6;&quot;&gt;String&lt;/span&gt;&lt;span style=&quot;color: #d4d4d4;&quot;&gt; &lt;/span&gt;&lt;span style=&quot;color: #9cdcfe;&quot;&gt;base64Content&lt;/span&gt;&lt;span style=&quot;color: #d4d4d4;&quot;&gt;, &lt;/span&gt;&lt;span style=&quot;color: #569cd6;&quot;&gt;Boolean&lt;/span&gt;&lt;span style=&quot;color: #d4d4d4;&quot;&gt; &lt;/span&gt;&lt;span style=&quot;color: #9cdcfe;&quot;&gt;isUploadSF&lt;/span&gt;&lt;span style=&quot;color: #d4d4d4;&quot;&gt;)&lt;/span&gt;&lt;/div&gt;&lt;/div&gt;&lt;br&gt;" style="rounded=0;whiteSpace=wrap;html=1;" parent="1" vertex="1">
          <mxGeometry x="110" y="770" width="810" as="geometry" />
        </mxCell>
        <mxCell id="3Fpn5IZwIykw-nV9-C1c-2" value="step1" style="text;html=1;align=center;verticalAlign=middle;whiteSpace=wrap;rounded=0;fontColor=#FF4314;" parent="1" vertex="1">
          <mxGeometry x="50" y="755" width="60" height="30" as="geometry" />
        </mxCell>
        <mxCell id="3Fpn5IZwIykw-nV9-C1c-8" style="edgeStyle=orthogonalEdgeStyle;rounded=0;orthogonalLoop=1;jettySize=auto;html=1;entryX=0.5;entryY=0;entryDx=0;entryDy=0;fontSize=21;fontColor=#000033;" parent="1" source="3Fpn5IZwIykw-nV9-C1c-3" target="3Fpn5IZwIykw-nV9-C1c-7" edge="1">
          <mxGeometry relative="1" as="geometry" />
        </mxCell>
        <mxCell id="3Fpn5IZwIykw-nV9-C1c-3" value="&lt;div style=&quot;color: rgb(212, 212, 212); background-color: rgb(30, 30, 30); font-family: Consolas, &amp;quot;Courier New&amp;quot;, monospace; font-size: 14px; line-height: 19px;&quot;&gt;&lt;span style=&quot;color: #dcdcaa;&quot;&gt;ce_CommEngineHepler.sendMMS&lt;/span&gt;(&lt;span style=&quot;color: #569cd6;&quot;&gt;ce_MmsEntity&lt;/span&gt;.&lt;span style=&quot;color: #569cd6;&quot;&gt;ce_MmsMessageWrapper&lt;/span&gt; &lt;span style=&quot;color: #9cdcfe;&quot;&gt;mmsMessageWrapper&lt;/span&gt;)&lt;/div&gt;" style="rounded=0;whiteSpace=wrap;html=1;fontColor=#FF4314;" parent="1" vertex="1">
          <mxGeometry x="195" y="890" width="640" height="20" as="geometry" />
        </mxCell>
        <mxCell id="3Fpn5IZwIykw-nV9-C1c-6" value="step2" style="text;html=1;align=center;verticalAlign=middle;whiteSpace=wrap;rounded=0;fontColor=#FF4314;" parent="1" vertex="1">
          <mxGeometry x="50" y="890" width="60" height="30" as="geometry" />
        </mxCell>
        <mxCell id="3Fpn5IZwIykw-nV9-C1c-7" value="end" style="rounded=1;whiteSpace=wrap;html=1;fontColor=#000033;fontSize=21;" parent="1" vertex="1">
          <mxGeometry x="465" y="1090" width="100" height="20" as="geometry" />
        </mxCell>
        <mxCell id="3Fpn5IZwIykw-nV9-C1c-10" value="&lt;div style=&quot;text-align: justify; font-size: 14px;&quot;&gt;&lt;span style=&quot;background-color: initial; font-size: 14px;&quot;&gt;1.use mediaId query docId&lt;/span&gt;&lt;/div&gt;&lt;div style=&quot;text-align: justify; font-size: 14px;&quot;&gt;&lt;span style=&quot;background-color: initial; font-size: 14px;&quot;&gt;2.create ce_content_document_link__c related to ce_message_bucket__c&lt;/span&gt;&lt;/div&gt;&lt;div style=&quot;text-align: justify; font-size: 14px;&quot;&gt;&lt;span style=&quot;background-color: initial; font-size: 14px;&quot;&gt;3.Asyn call mule api and update ce_message_bucket__c status&lt;/span&gt;&lt;/div&gt;" style="text;html=1;strokeColor=none;fillColor=none;align=left;verticalAlign=middle;whiteSpace=wrap;rounded=0;fontSize=14;fontColor=#000033;" parent="1" vertex="1">
          <mxGeometry x="530" y="940" width="470" height="100" as="geometry" />
        </mxCell>
        <mxCell id="j-aHU3Jmd16EjFNAe3ry-7" style="edgeStyle=orthogonalEdgeStyle;rounded=0;orthogonalLoop=1;jettySize=auto;html=1;exitX=1;exitY=0.5;exitDx=0;exitDy=0;entryX=0;entryY=0.5;entryDx=0;entryDy=0;" edge="1" parent="1" source="j-aHU3Jmd16EjFNAe3ry-1" target="j-aHU3Jmd16EjFNAe3ry-4">
          <mxGeometry x="0.1017" y="3" relative="1" as="geometry">
            <Array as="points">
              <mxPoint x="380" y="1470" />
              <mxPoint x="380" y="1340" />
            </Array>
            <mxPoint x="1" y="1" as="offset" />
          </mxGeometry>
        </mxCell>
        <mxCell id="j-aHU3Jmd16EjFNAe3ry-8" value="Channel==Email" style="edgeLabel;html=1;align=center;verticalAlign=middle;resizable=0;points=[];" vertex="1" connectable="0" parent="j-aHU3Jmd16EjFNAe3ry-7">
          <mxGeometry x="0.225" y="-2" relative="1" as="geometry">
            <mxPoint as="offset" />
          </mxGeometry>
        </mxCell>
        <mxCell id="j-aHU3Jmd16EjFNAe3ry-10" style="edgeStyle=orthogonalEdgeStyle;rounded=0;orthogonalLoop=1;jettySize=auto;html=1;entryX=0;entryY=0.5;entryDx=0;entryDy=0;" edge="1" parent="1" source="j-aHU3Jmd16EjFNAe3ry-1" target="j-aHU3Jmd16EjFNAe3ry-12">
          <mxGeometry relative="1" as="geometry">
            <mxPoint x="465" y="1580" as="targetPoint" />
            <Array as="points">
              <mxPoint x="380" y="1470" />
              <mxPoint x="380" y="1580" />
            </Array>
          </mxGeometry>
        </mxCell>
        <mxCell id="j-aHU3Jmd16EjFNAe3ry-11" value="Channel == Other(&lt;span style=&quot;font-size:10.5pt;mso-bidi-font-size:&lt;br/&gt;11.0pt;font-family:等线;mso-ascii-theme-font:minor-latin;mso-fareast-theme-font:&lt;br/&gt;minor-fareast;mso-hansi-theme-font:minor-latin;mso-bidi-font-family:&amp;quot;Times New Roman&amp;quot;;&lt;br/&gt;mso-bidi-theme-font:minor-bidi;mso-ansi-language:EN-US;mso-fareast-language:&lt;br/&gt;ZH-CN;mso-bidi-language:AR-SA&quot; lang=&quot;EN-US&quot;&gt;&amp;nbsp;SMS, MMS,&lt;br/&gt;AppPush and Whatsapp&lt;/span&gt;&lt;br&gt;)" style="edgeLabel;html=1;align=center;verticalAlign=middle;resizable=0;points=[];" vertex="1" connectable="0" parent="j-aHU3Jmd16EjFNAe3ry-10">
          <mxGeometry x="-0.1155" y="-1" relative="1" as="geometry">
            <mxPoint as="offset" />
          </mxGeometry>
        </mxCell>
        <mxCell id="j-aHU3Jmd16EjFNAe3ry-20" value="" style="edgeStyle=orthogonalEdgeStyle;rounded=0;orthogonalLoop=1;jettySize=auto;html=1;entryX=1;entryY=0.5;entryDx=0;entryDy=0;" edge="1" parent="1" source="j-aHU3Jmd16EjFNAe3ry-1" target="j-aHU3Jmd16EjFNAe3ry-29">
          <mxGeometry relative="1" as="geometry">
            <mxPoint x="225" y="1580" as="targetPoint" />
          </mxGeometry>
        </mxCell>
        <mxCell id="j-aHU3Jmd16EjFNAe3ry-21" value="Channel==All" style="edgeLabel;html=1;align=center;verticalAlign=middle;resizable=0;points=[];" vertex="1" connectable="0" parent="j-aHU3Jmd16EjFNAe3ry-20">
          <mxGeometry x="0.26" y="-2" relative="1" as="geometry">
            <mxPoint as="offset" />
          </mxGeometry>
        </mxCell>
        <mxCell id="j-aHU3Jmd16EjFNAe3ry-30" style="edgeStyle=orthogonalEdgeStyle;rounded=0;orthogonalLoop=1;jettySize=auto;html=1;exitX=0.5;exitY=1;exitDx=0;exitDy=0;entryX=0;entryY=0.5;entryDx=0;entryDy=0;" edge="1" parent="1" source="j-aHU3Jmd16EjFNAe3ry-1" target="j-aHU3Jmd16EjFNAe3ry-26">
          <mxGeometry relative="1" as="geometry" />
        </mxCell>
        <mxCell id="j-aHU3Jmd16EjFNAe3ry-1" value="&lt;span style=&quot;font-size:10.5pt;mso-bidi-font-size:&lt;br/&gt;11.0pt;font-family:等线;mso-ascii-theme-font:minor-latin;mso-fareast-theme-font:&lt;br/&gt;minor-fareast;mso-hansi-theme-font:minor-latin;mso-bidi-font-family:&amp;quot;Times New Roman&amp;quot;;&lt;br/&gt;mso-bidi-theme-font:minor-bidi;mso-ansi-language:EN-US;mso-fareast-language:&lt;br/&gt;ZH-CN;mso-bidi-language:AR-SA&quot; lang=&quot;EN-US&quot;&gt;searchMessageHistory&amp;nbsp;&lt;/span&gt;" style="rounded=0;whiteSpace=wrap;html=1;" vertex="1" parent="1">
          <mxGeometry x="150" y="1440" width="150" height="60" as="geometry" />
        </mxCell>
        <mxCell id="j-aHU3Jmd16EjFNAe3ry-34" value="" style="edgeStyle=orthogonalEdgeStyle;rounded=0;orthogonalLoop=1;jettySize=auto;html=1;" edge="1" parent="1" source="j-aHU3Jmd16EjFNAe3ry-4" target="j-aHU3Jmd16EjFNAe3ry-35">
          <mxGeometry relative="1" as="geometry">
            <mxPoint x="690" y="1340" as="targetPoint" />
          </mxGeometry>
        </mxCell>
        <mxCell id="j-aHU3Jmd16EjFNAe3ry-4" value="getEmailMessageHisList方法查询EmailMessage" style="whiteSpace=wrap;html=1;rounded=0;" vertex="1" parent="1">
          <mxGeometry x="465" y="1310" width="145" height="60" as="geometry" />
        </mxCell>
        <mxCell id="j-aHU3Jmd16EjFNAe3ry-14" value="" style="edgeStyle=orthogonalEdgeStyle;rounded=0;orthogonalLoop=1;jettySize=auto;html=1;" edge="1" parent="1" source="j-aHU3Jmd16EjFNAe3ry-12" target="j-aHU3Jmd16EjFNAe3ry-13">
          <mxGeometry relative="1" as="geometry" />
        </mxCell>
        <mxCell id="j-aHU3Jmd16EjFNAe3ry-15" value="true" style="edgeLabel;html=1;align=center;verticalAlign=middle;resizable=0;points=[];" vertex="1" connectable="0" parent="j-aHU3Jmd16EjFNAe3ry-14">
          <mxGeometry x="-0.2988" relative="1" as="geometry">
            <mxPoint as="offset" />
          </mxGeometry>
        </mxCell>
        <mxCell id="j-aHU3Jmd16EjFNAe3ry-17" value="" style="edgeStyle=orthogonalEdgeStyle;rounded=0;orthogonalLoop=1;jettySize=auto;html=1;" edge="1" parent="1" source="j-aHU3Jmd16EjFNAe3ry-12" target="j-aHU3Jmd16EjFNAe3ry-16">
          <mxGeometry relative="1" as="geometry" />
        </mxCell>
        <mxCell id="j-aHU3Jmd16EjFNAe3ry-18" value="false" style="edgeLabel;html=1;align=center;verticalAlign=middle;resizable=0;points=[];" vertex="1" connectable="0" parent="j-aHU3Jmd16EjFNAe3ry-17">
          <mxGeometry x="-0.26" y="-2" relative="1" as="geometry">
            <mxPoint as="offset" />
          </mxGeometry>
        </mxCell>
        <mxCell id="j-aHU3Jmd16EjFNAe3ry-12" value="&lt;span style=&quot;font-size:10.5pt;mso-bidi-font-size:&lt;br/&gt;11.0pt;font-family:等线;mso-ascii-theme-font:minor-latin;mso-fareast-theme-font:&lt;br/&gt;minor-fareast;mso-hansi-theme-font:minor-latin;mso-bidi-font-family:&amp;quot;Times New Roman&amp;quot;;&lt;br/&gt;mso-bidi-theme-font:minor-bidi;mso-ansi-language:EN-US;mso-fareast-language:&lt;br/&gt;ZH-CN;mso-bidi-language:AR-SA&quot; lang=&quot;EN-US&quot;&gt;Message Bucket Switch&lt;/span&gt;" style="rhombus;whiteSpace=wrap;html=1;" vertex="1" parent="1">
          <mxGeometry x="500" y="1540" width="130" height="80" as="geometry" />
        </mxCell>
        <mxCell id="j-aHU3Jmd16EjFNAe3ry-39" style="edgeStyle=orthogonalEdgeStyle;rounded=0;orthogonalLoop=1;jettySize=auto;html=1;exitX=1;exitY=0.5;exitDx=0;exitDy=0;" edge="1" parent="1" source="j-aHU3Jmd16EjFNAe3ry-13" target="j-aHU3Jmd16EjFNAe3ry-37">
          <mxGeometry relative="1" as="geometry" />
        </mxCell>
        <mxCell id="j-aHU3Jmd16EjFNAe3ry-13" value="getCeBucketMessageHisList方法查询ce_MessageBuket__c" style="whiteSpace=wrap;html=1;" vertex="1" parent="1">
          <mxGeometry x="715" y="1550" width="165" height="60" as="geometry" />
        </mxCell>
        <mxCell id="j-aHU3Jmd16EjFNAe3ry-38" style="edgeStyle=orthogonalEdgeStyle;rounded=0;orthogonalLoop=1;jettySize=auto;html=1;exitX=1;exitY=0.5;exitDx=0;exitDy=0;" edge="1" parent="1" source="j-aHU3Jmd16EjFNAe3ry-16" target="j-aHU3Jmd16EjFNAe3ry-36">
          <mxGeometry relative="1" as="geometry" />
        </mxCell>
        <mxCell id="j-aHU3Jmd16EjFNAe3ry-16" value="getBucketMessageHisList方法查询rsplus__SMS_Bucket__c" style="whiteSpace=wrap;html=1;" vertex="1" parent="1">
          <mxGeometry x="487.5" y="1410" width="155" height="60" as="geometry" />
        </mxCell>
        <mxCell id="j-aHU3Jmd16EjFNAe3ry-22" value="" style="edgeStyle=orthogonalEdgeStyle;rounded=0;orthogonalLoop=1;jettySize=auto;html=1;" edge="1" parent="1" source="j-aHU3Jmd16EjFNAe3ry-26" target="j-aHU3Jmd16EjFNAe3ry-27">
          <mxGeometry relative="1" as="geometry" />
        </mxCell>
        <mxCell id="j-aHU3Jmd16EjFNAe3ry-23" value="true" style="edgeLabel;html=1;align=center;verticalAlign=middle;resizable=0;points=[];" vertex="1" connectable="0" parent="j-aHU3Jmd16EjFNAe3ry-22">
          <mxGeometry x="-0.2988" relative="1" as="geometry">
            <mxPoint as="offset" />
          </mxGeometry>
        </mxCell>
        <mxCell id="j-aHU3Jmd16EjFNAe3ry-24" value="" style="edgeStyle=orthogonalEdgeStyle;rounded=0;orthogonalLoop=1;jettySize=auto;html=1;" edge="1" parent="1" source="j-aHU3Jmd16EjFNAe3ry-26" target="j-aHU3Jmd16EjFNAe3ry-28">
          <mxGeometry relative="1" as="geometry" />
        </mxCell>
        <mxCell id="j-aHU3Jmd16EjFNAe3ry-25" value="false" style="edgeLabel;html=1;align=center;verticalAlign=middle;resizable=0;points=[];" vertex="1" connectable="0" parent="j-aHU3Jmd16EjFNAe3ry-24">
          <mxGeometry x="-0.26" y="-2" relative="1" as="geometry">
            <mxPoint as="offset" />
          </mxGeometry>
        </mxCell>
        <mxCell id="j-aHU3Jmd16EjFNAe3ry-26" value="&lt;span style=&quot;font-size:10.5pt;mso-bidi-font-size:&lt;br/&gt;11.0pt;font-family:等线;mso-ascii-theme-font:minor-latin;mso-fareast-theme-font:&lt;br/&gt;minor-fareast;mso-hansi-theme-font:minor-latin;mso-bidi-font-family:&amp;quot;Times New Roman&amp;quot;;&lt;br/&gt;mso-bidi-theme-font:minor-bidi;mso-ansi-language:EN-US;mso-fareast-language:&lt;br/&gt;ZH-CN;mso-bidi-language:AR-SA&quot; lang=&quot;EN-US&quot;&gt;Message Bucket Switch&lt;/span&gt;" style="rhombus;whiteSpace=wrap;html=1;" vertex="1" parent="1">
          <mxGeometry x="260" y="1640" width="130" height="80" as="geometry" />
        </mxCell>
        <mxCell id="j-aHU3Jmd16EjFNAe3ry-49" style="edgeStyle=orthogonalEdgeStyle;rounded=0;orthogonalLoop=1;jettySize=auto;html=1;exitX=0.5;exitY=1;exitDx=0;exitDy=0;" edge="1" parent="1" source="j-aHU3Jmd16EjFNAe3ry-27">
          <mxGeometry relative="1" as="geometry">
            <mxPoint x="471" y="1900" as="targetPoint" />
            <Array as="points">
              <mxPoint x="548" y="1820" />
              <mxPoint x="471" y="1820" />
            </Array>
          </mxGeometry>
        </mxCell>
        <mxCell id="j-aHU3Jmd16EjFNAe3ry-27" value="getCeBucketMessageHisList方法查询ce_MessageBuket__c" style="whiteSpace=wrap;html=1;" vertex="1" parent="1">
          <mxGeometry x="465" y="1650" width="165" height="60" as="geometry" />
        </mxCell>
        <mxCell id="j-aHU3Jmd16EjFNAe3ry-47" style="edgeStyle=orthogonalEdgeStyle;rounded=0;orthogonalLoop=1;jettySize=auto;html=1;exitX=1;exitY=0.5;exitDx=0;exitDy=0;" edge="1" parent="1" source="j-aHU3Jmd16EjFNAe3ry-28">
          <mxGeometry relative="1" as="geometry">
            <mxPoint x="470" y="1900" as="targetPoint" />
            <Array as="points">
              <mxPoint x="470" y="1820" />
            </Array>
          </mxGeometry>
        </mxCell>
        <mxCell id="j-aHU3Jmd16EjFNAe3ry-28" value="getBucketMessageHisList方法查询rsplus__SMS_Bucket__c" style="whiteSpace=wrap;html=1;" vertex="1" parent="1">
          <mxGeometry x="247.5" y="1790" width="155" height="60" as="geometry" />
        </mxCell>
        <mxCell id="j-aHU3Jmd16EjFNAe3ry-43" style="edgeStyle=orthogonalEdgeStyle;rounded=0;orthogonalLoop=1;jettySize=auto;html=1;exitX=0.5;exitY=1;exitDx=0;exitDy=0;entryX=0;entryY=0.5;entryDx=0;entryDy=0;" edge="1" parent="1" source="j-aHU3Jmd16EjFNAe3ry-29" target="j-aHU3Jmd16EjFNAe3ry-42">
          <mxGeometry relative="1" as="geometry" />
        </mxCell>
        <mxCell id="j-aHU3Jmd16EjFNAe3ry-50" value="Union" style="edgeLabel;html=1;align=center;verticalAlign=middle;resizable=0;points=[];" vertex="1" connectable="0" parent="j-aHU3Jmd16EjFNAe3ry-43">
          <mxGeometry x="0.792" y="2" relative="1" as="geometry">
            <mxPoint as="offset" />
          </mxGeometry>
        </mxCell>
        <mxCell id="j-aHU3Jmd16EjFNAe3ry-29" value="getEmailMessageHisList方法查询EmailMessage" style="whiteSpace=wrap;html=1;rounded=0;" vertex="1" parent="1">
          <mxGeometry x="40" y="1650" width="145" height="60" as="geometry" />
        </mxCell>
        <mxCell id="j-aHU3Jmd16EjFNAe3ry-35" value="Return Result" style="text;html=1;strokeColor=none;fillColor=none;align=center;verticalAlign=middle;whiteSpace=wrap;rounded=0;" vertex="1" parent="1">
          <mxGeometry x="670" y="1322.5" width="100" height="35" as="geometry" />
        </mxCell>
        <mxCell id="j-aHU3Jmd16EjFNAe3ry-36" value="&#xa;&lt;span style=&quot;color: rgb(0, 0, 0); font-family: Helvetica; font-size: 12px; font-style: normal; font-variant-ligatures: normal; font-variant-caps: normal; font-weight: 400; letter-spacing: normal; orphans: 2; text-align: center; text-indent: 0px; text-transform: none; widows: 2; word-spacing: 0px; -webkit-text-stroke-width: 0px; background-color: rgb(251, 251, 251); text-decoration-thickness: initial; text-decoration-style: initial; text-decoration-color: initial; float: none; display: inline !important;&quot;&gt;Return Result&lt;/span&gt;&#xa;&#xa;" style="text;html=1;strokeColor=none;fillColor=none;align=center;verticalAlign=middle;whiteSpace=wrap;rounded=0;" vertex="1" parent="1">
          <mxGeometry x="690" y="1422.5" width="90" height="35" as="geometry" />
        </mxCell>
        <mxCell id="j-aHU3Jmd16EjFNAe3ry-37" value="&#xa;&lt;span style=&quot;color: rgb(0, 0, 0); font-family: Helvetica; font-size: 12px; font-style: normal; font-variant-ligatures: normal; font-variant-caps: normal; font-weight: 400; letter-spacing: normal; orphans: 2; text-align: center; text-indent: 0px; text-transform: none; widows: 2; word-spacing: 0px; -webkit-text-stroke-width: 0px; background-color: rgb(251, 251, 251); text-decoration-thickness: initial; text-decoration-style: initial; text-decoration-color: initial; float: none; display: inline !important;&quot;&gt;Return Result&lt;/span&gt;&#xa;&#xa;" style="text;html=1;strokeColor=none;fillColor=none;align=center;verticalAlign=middle;whiteSpace=wrap;rounded=0;" vertex="1" parent="1">
          <mxGeometry x="920" y="1562.5" width="90" height="35" as="geometry" />
        </mxCell>
        <mxCell id="j-aHU3Jmd16EjFNAe3ry-42" value="Return Result" style="text;html=1;strokeColor=none;fillColor=none;align=center;verticalAlign=middle;whiteSpace=wrap;rounded=0;" vertex="1" parent="1">
          <mxGeometry x="600" y="1880" width="100" height="35" as="geometry" />
        </mxCell>
        <mxCell id="j-aHU3Jmd16EjFNAe3ry-51" style="edgeStyle=orthogonalEdgeStyle;rounded=0;orthogonalLoop=1;jettySize=auto;html=1;exitX=1;exitY=0.5;exitDx=0;exitDy=0;entryX=0;entryY=0.5;entryDx=0;entryDy=0;" edge="1" parent="1" source="j-aHU3Jmd16EjFNAe3ry-58" target="j-aHU3Jmd16EjFNAe3ry-60">
          <mxGeometry x="0.1017" y="3" relative="1" as="geometry">
            <Array as="points">
              <mxPoint x="579" y="2330" />
              <mxPoint x="579" y="2200" />
            </Array>
            <mxPoint x="1" y="1" as="offset" />
          </mxGeometry>
        </mxCell>
        <mxCell id="j-aHU3Jmd16EjFNAe3ry-52" value="Channel==Email" style="edgeLabel;html=1;align=center;verticalAlign=middle;resizable=0;points=[];" vertex="1" connectable="0" parent="j-aHU3Jmd16EjFNAe3ry-51">
          <mxGeometry x="0.225" y="-2" relative="1" as="geometry">
            <mxPoint as="offset" />
          </mxGeometry>
        </mxCell>
        <mxCell id="j-aHU3Jmd16EjFNAe3ry-53" style="edgeStyle=orthogonalEdgeStyle;rounded=0;orthogonalLoop=1;jettySize=auto;html=1;entryX=0;entryY=0.5;entryDx=0;entryDy=0;" edge="1" parent="1" source="j-aHU3Jmd16EjFNAe3ry-58" target="j-aHU3Jmd16EjFNAe3ry-65">
          <mxGeometry relative="1" as="geometry">
            <mxPoint x="664" y="2440" as="targetPoint" />
            <Array as="points">
              <mxPoint x="579" y="2330" />
              <mxPoint x="579" y="2440" />
            </Array>
          </mxGeometry>
        </mxCell>
        <mxCell id="j-aHU3Jmd16EjFNAe3ry-54" value="Channel == Other(&lt;span style=&quot;font-size:10.5pt;mso-bidi-font-size:&lt;br/&gt;11.0pt;font-family:等线;mso-ascii-theme-font:minor-latin;mso-fareast-theme-font:&lt;br/&gt;minor-fareast;mso-hansi-theme-font:minor-latin;mso-bidi-font-family:&amp;quot;Times New Roman&amp;quot;;&lt;br/&gt;mso-bidi-theme-font:minor-bidi;mso-ansi-language:EN-US;mso-fareast-language:&lt;br/&gt;ZH-CN;mso-bidi-language:AR-SA&quot; lang=&quot;EN-US&quot;&gt;&amp;nbsp;SMS, MMS,&lt;br/&gt;AppPush and Whatsapp&lt;/span&gt;&lt;br&gt;)" style="edgeLabel;html=1;align=center;verticalAlign=middle;resizable=0;points=[];" vertex="1" connectable="0" parent="j-aHU3Jmd16EjFNAe3ry-53">
          <mxGeometry x="-0.1155" y="-1" relative="1" as="geometry">
            <mxPoint as="offset" />
          </mxGeometry>
        </mxCell>
        <mxCell id="j-aHU3Jmd16EjFNAe3ry-55" value="" style="edgeStyle=orthogonalEdgeStyle;rounded=0;orthogonalLoop=1;jettySize=auto;html=1;entryX=1;entryY=0.5;entryDx=0;entryDy=0;" edge="1" parent="1" source="j-aHU3Jmd16EjFNAe3ry-58" target="j-aHU3Jmd16EjFNAe3ry-81">
          <mxGeometry relative="1" as="geometry">
            <mxPoint x="424" y="2440" as="targetPoint" />
          </mxGeometry>
        </mxCell>
        <mxCell id="j-aHU3Jmd16EjFNAe3ry-56" value="Channel==All" style="edgeLabel;html=1;align=center;verticalAlign=middle;resizable=0;points=[];" vertex="1" connectable="0" parent="j-aHU3Jmd16EjFNAe3ry-55">
          <mxGeometry x="0.26" y="-2" relative="1" as="geometry">
            <mxPoint as="offset" />
          </mxGeometry>
        </mxCell>
        <mxCell id="j-aHU3Jmd16EjFNAe3ry-57" style="edgeStyle=orthogonalEdgeStyle;rounded=0;orthogonalLoop=1;jettySize=auto;html=1;exitX=0.5;exitY=1;exitDx=0;exitDy=0;entryX=0;entryY=0.5;entryDx=0;entryDy=0;" edge="1" parent="1" source="j-aHU3Jmd16EjFNAe3ry-58" target="j-aHU3Jmd16EjFNAe3ry-74">
          <mxGeometry relative="1" as="geometry" />
        </mxCell>
        <mxCell id="j-aHU3Jmd16EjFNAe3ry-58" value="&lt;span lang=&quot;EN-US&quot;&gt;searchCommHistoryByRelatedObjecId&lt;/span&gt;" style="rounded=0;whiteSpace=wrap;html=1;" vertex="1" parent="1">
          <mxGeometry x="290" y="2290" width="229" height="60" as="geometry" />
        </mxCell>
        <mxCell id="j-aHU3Jmd16EjFNAe3ry-59" value="" style="edgeStyle=orthogonalEdgeStyle;rounded=0;orthogonalLoop=1;jettySize=auto;html=1;" edge="1" parent="1" source="j-aHU3Jmd16EjFNAe3ry-60" target="j-aHU3Jmd16EjFNAe3ry-82">
          <mxGeometry relative="1" as="geometry">
            <mxPoint x="889" y="2200" as="targetPoint" />
          </mxGeometry>
        </mxCell>
        <mxCell id="j-aHU3Jmd16EjFNAe3ry-60" value="getEmailMessageHisListByRelated方法查询EmailMessage" style="whiteSpace=wrap;html=1;rounded=0;" vertex="1" parent="1">
          <mxGeometry x="664" y="2170" width="186" height="60" as="geometry" />
        </mxCell>
        <mxCell id="j-aHU3Jmd16EjFNAe3ry-61" value="" style="edgeStyle=orthogonalEdgeStyle;rounded=0;orthogonalLoop=1;jettySize=auto;html=1;" edge="1" parent="1" source="j-aHU3Jmd16EjFNAe3ry-65" target="j-aHU3Jmd16EjFNAe3ry-67">
          <mxGeometry relative="1" as="geometry" />
        </mxCell>
        <mxCell id="j-aHU3Jmd16EjFNAe3ry-62" value="true" style="edgeLabel;html=1;align=center;verticalAlign=middle;resizable=0;points=[];" vertex="1" connectable="0" parent="j-aHU3Jmd16EjFNAe3ry-61">
          <mxGeometry x="-0.2988" relative="1" as="geometry">
            <mxPoint as="offset" />
          </mxGeometry>
        </mxCell>
        <mxCell id="j-aHU3Jmd16EjFNAe3ry-63" value="" style="edgeStyle=orthogonalEdgeStyle;rounded=0;orthogonalLoop=1;jettySize=auto;html=1;" edge="1" parent="1" source="j-aHU3Jmd16EjFNAe3ry-65" target="j-aHU3Jmd16EjFNAe3ry-69">
          <mxGeometry relative="1" as="geometry" />
        </mxCell>
        <mxCell id="j-aHU3Jmd16EjFNAe3ry-64" value="false" style="edgeLabel;html=1;align=center;verticalAlign=middle;resizable=0;points=[];" vertex="1" connectable="0" parent="j-aHU3Jmd16EjFNAe3ry-63">
          <mxGeometry x="-0.26" y="-2" relative="1" as="geometry">
            <mxPoint as="offset" />
          </mxGeometry>
        </mxCell>
        <mxCell id="j-aHU3Jmd16EjFNAe3ry-65" value="&lt;span style=&quot;font-size:10.5pt;mso-bidi-font-size:&lt;br/&gt;11.0pt;font-family:等线;mso-ascii-theme-font:minor-latin;mso-fareast-theme-font:&lt;br/&gt;minor-fareast;mso-hansi-theme-font:minor-latin;mso-bidi-font-family:&amp;quot;Times New Roman&amp;quot;;&lt;br/&gt;mso-bidi-theme-font:minor-bidi;mso-ansi-language:EN-US;mso-fareast-language:&lt;br/&gt;ZH-CN;mso-bidi-language:AR-SA&quot; lang=&quot;EN-US&quot;&gt;Message Bucket Switch&lt;/span&gt;" style="rhombus;whiteSpace=wrap;html=1;" vertex="1" parent="1">
          <mxGeometry x="723.25" y="2400" width="130" height="80" as="geometry" />
        </mxCell>
        <mxCell id="j-aHU3Jmd16EjFNAe3ry-66" style="edgeStyle=orthogonalEdgeStyle;rounded=0;orthogonalLoop=1;jettySize=auto;html=1;exitX=1;exitY=0.5;exitDx=0;exitDy=0;entryX=0;entryY=0.5;entryDx=0;entryDy=0;" edge="1" parent="1" source="j-aHU3Jmd16EjFNAe3ry-67" target="j-aHU3Jmd16EjFNAe3ry-85">
          <mxGeometry relative="1" as="geometry">
            <mxPoint x="1130" y="2440" as="targetPoint" />
          </mxGeometry>
        </mxCell>
        <mxCell id="j-aHU3Jmd16EjFNAe3ry-67" value="getCeBucketMessageHisList方法查询ce_MessageBuket__c" style="whiteSpace=wrap;html=1;" vertex="1" parent="1">
          <mxGeometry x="914" y="2410" width="165" height="60" as="geometry" />
        </mxCell>
        <mxCell id="j-aHU3Jmd16EjFNAe3ry-68" style="edgeStyle=orthogonalEdgeStyle;rounded=0;orthogonalLoop=1;jettySize=auto;html=1;exitX=1;exitY=0.5;exitDx=0;exitDy=0;" edge="1" parent="1" source="j-aHU3Jmd16EjFNAe3ry-69" target="j-aHU3Jmd16EjFNAe3ry-83">
          <mxGeometry relative="1" as="geometry" />
        </mxCell>
        <mxCell id="j-aHU3Jmd16EjFNAe3ry-69" value="getBucketMessageHisListByRelated方法查询rsplus__SMS_Bucket__c" style="whiteSpace=wrap;html=1;" vertex="1" parent="1">
          <mxGeometry x="686.5" y="2270" width="203.5" height="60" as="geometry" />
        </mxCell>
        <mxCell id="j-aHU3Jmd16EjFNAe3ry-70" value="" style="edgeStyle=orthogonalEdgeStyle;rounded=0;orthogonalLoop=1;jettySize=auto;html=1;" edge="1" parent="1" source="j-aHU3Jmd16EjFNAe3ry-74" target="j-aHU3Jmd16EjFNAe3ry-76">
          <mxGeometry relative="1" as="geometry" />
        </mxCell>
        <mxCell id="j-aHU3Jmd16EjFNAe3ry-71" value="true" style="edgeLabel;html=1;align=center;verticalAlign=middle;resizable=0;points=[];" vertex="1" connectable="0" parent="j-aHU3Jmd16EjFNAe3ry-70">
          <mxGeometry x="-0.2988" relative="1" as="geometry">
            <mxPoint as="offset" />
          </mxGeometry>
        </mxCell>
        <mxCell id="j-aHU3Jmd16EjFNAe3ry-72" value="" style="edgeStyle=orthogonalEdgeStyle;rounded=0;orthogonalLoop=1;jettySize=auto;html=1;" edge="1" parent="1" source="j-aHU3Jmd16EjFNAe3ry-74" target="j-aHU3Jmd16EjFNAe3ry-78">
          <mxGeometry relative="1" as="geometry" />
        </mxCell>
        <mxCell id="j-aHU3Jmd16EjFNAe3ry-73" value="false" style="edgeLabel;html=1;align=center;verticalAlign=middle;resizable=0;points=[];" vertex="1" connectable="0" parent="j-aHU3Jmd16EjFNAe3ry-72">
          <mxGeometry x="-0.26" y="-2" relative="1" as="geometry">
            <mxPoint as="offset" />
          </mxGeometry>
        </mxCell>
        <mxCell id="j-aHU3Jmd16EjFNAe3ry-74" value="&lt;span style=&quot;font-size:10.5pt;mso-bidi-font-size:&lt;br/&gt;11.0pt;font-family:等线;mso-ascii-theme-font:minor-latin;mso-fareast-theme-font:&lt;br/&gt;minor-fareast;mso-hansi-theme-font:minor-latin;mso-bidi-font-family:&amp;quot;Times New Roman&amp;quot;;&lt;br/&gt;mso-bidi-theme-font:minor-bidi;mso-ansi-language:EN-US;mso-fareast-language:&lt;br/&gt;ZH-CN;mso-bidi-language:AR-SA&quot; lang=&quot;EN-US&quot;&gt;Message Bucket Switch&lt;/span&gt;" style="rhombus;whiteSpace=wrap;html=1;" vertex="1" parent="1">
          <mxGeometry x="459" y="2500" width="130" height="80" as="geometry" />
        </mxCell>
        <mxCell id="j-aHU3Jmd16EjFNAe3ry-75" style="edgeStyle=orthogonalEdgeStyle;rounded=0;orthogonalLoop=1;jettySize=auto;html=1;exitX=0.5;exitY=1;exitDx=0;exitDy=0;" edge="1" parent="1" source="j-aHU3Jmd16EjFNAe3ry-76">
          <mxGeometry relative="1" as="geometry">
            <mxPoint x="670" y="2760" as="targetPoint" />
            <Array as="points">
              <mxPoint x="747" y="2680" />
              <mxPoint x="670" y="2680" />
            </Array>
          </mxGeometry>
        </mxCell>
        <mxCell id="j-aHU3Jmd16EjFNAe3ry-76" value="getCeBucketMessageHisList方法查询ce_MessageBuket__c" style="whiteSpace=wrap;html=1;" vertex="1" parent="1">
          <mxGeometry x="664" y="2510" width="165" height="60" as="geometry" />
        </mxCell>
        <mxCell id="j-aHU3Jmd16EjFNAe3ry-77" style="edgeStyle=orthogonalEdgeStyle;rounded=0;orthogonalLoop=1;jettySize=auto;html=1;exitX=1;exitY=0.5;exitDx=0;exitDy=0;" edge="1" parent="1" source="j-aHU3Jmd16EjFNAe3ry-78">
          <mxGeometry relative="1" as="geometry">
            <mxPoint x="669" y="2760" as="targetPoint" />
            <Array as="points">
              <mxPoint x="669" y="2680" />
            </Array>
          </mxGeometry>
        </mxCell>
        <mxCell id="j-aHU3Jmd16EjFNAe3ry-78" value="getBucketMessageHisListByRelated方法查询rsplus__SMS_Bucket__c" style="whiteSpace=wrap;html=1;" vertex="1" parent="1">
          <mxGeometry x="423.25" y="2650" width="201.5" height="60" as="geometry" />
        </mxCell>
        <mxCell id="j-aHU3Jmd16EjFNAe3ry-79" style="edgeStyle=orthogonalEdgeStyle;rounded=0;orthogonalLoop=1;jettySize=auto;html=1;exitX=0.5;exitY=1;exitDx=0;exitDy=0;entryX=0;entryY=0.5;entryDx=0;entryDy=0;" edge="1" parent="1" source="j-aHU3Jmd16EjFNAe3ry-81" target="j-aHU3Jmd16EjFNAe3ry-84">
          <mxGeometry relative="1" as="geometry" />
        </mxCell>
        <mxCell id="j-aHU3Jmd16EjFNAe3ry-80" value="Union" style="edgeLabel;html=1;align=center;verticalAlign=middle;resizable=0;points=[];" vertex="1" connectable="0" parent="j-aHU3Jmd16EjFNAe3ry-79">
          <mxGeometry x="0.792" y="2" relative="1" as="geometry">
            <mxPoint as="offset" />
          </mxGeometry>
        </mxCell>
        <mxCell id="j-aHU3Jmd16EjFNAe3ry-81" value="getEmailMessageHisListByRelated方法查询EmailMessage" style="whiteSpace=wrap;html=1;rounded=0;" vertex="1" parent="1">
          <mxGeometry x="190" y="2510" width="194" height="60" as="geometry" />
        </mxCell>
        <mxCell id="j-aHU3Jmd16EjFNAe3ry-82" value="Return Result" style="text;html=1;strokeColor=none;fillColor=none;align=center;verticalAlign=middle;whiteSpace=wrap;rounded=0;" vertex="1" parent="1">
          <mxGeometry x="910" y="2182.5" width="100" height="35" as="geometry" />
        </mxCell>
        <mxCell id="j-aHU3Jmd16EjFNAe3ry-83" value="&#xa;&lt;span style=&quot;color: rgb(0, 0, 0); font-family: Helvetica; font-size: 12px; font-style: normal; font-variant-ligatures: normal; font-variant-caps: normal; font-weight: 400; letter-spacing: normal; orphans: 2; text-align: center; text-indent: 0px; text-transform: none; widows: 2; word-spacing: 0px; -webkit-text-stroke-width: 0px; background-color: rgb(251, 251, 251); text-decoration-thickness: initial; text-decoration-style: initial; text-decoration-color: initial; float: none; display: inline !important;&quot;&gt;Return Result&lt;/span&gt;&#xa;&#xa;" style="text;html=1;strokeColor=none;fillColor=none;align=center;verticalAlign=middle;whiteSpace=wrap;rounded=0;" vertex="1" parent="1">
          <mxGeometry x="989" y="2282.5" width="90" height="35" as="geometry" />
        </mxCell>
        <mxCell id="j-aHU3Jmd16EjFNAe3ry-84" value="Return Result" style="text;html=1;strokeColor=none;fillColor=none;align=center;verticalAlign=middle;whiteSpace=wrap;rounded=0;" vertex="1" parent="1">
          <mxGeometry x="799" y="2740" width="100" height="35" as="geometry" />
        </mxCell>
        <mxCell id="j-aHU3Jmd16EjFNAe3ry-85" value="&#xa;&lt;span style=&quot;color: rgb(0, 0, 0); font-family: Helvetica; font-size: 12px; font-style: normal; font-variant-ligatures: normal; font-variant-caps: normal; font-weight: 400; letter-spacing: normal; orphans: 2; text-align: center; text-indent: 0px; text-transform: none; widows: 2; word-spacing: 0px; -webkit-text-stroke-width: 0px; background-color: rgb(251, 251, 251); text-decoration-thickness: initial; text-decoration-style: initial; text-decoration-color: initial; float: none; display: inline !important;&quot;&gt;Return Result&lt;/span&gt;&#xa;&#xa;" style="text;html=1;strokeColor=none;fillColor=none;align=center;verticalAlign=middle;whiteSpace=wrap;rounded=0;" vertex="1" parent="1">
          <mxGeometry x="1150" y="2422.5" width="90" height="35" as="geometry" />
        </mxCell>
        <mxCell id="j-aHU3Jmd16EjFNAe3ry-88" style="edgeStyle=orthogonalEdgeStyle;rounded=0;orthogonalLoop=1;jettySize=auto;html=1;exitX=1;exitY=0.5;exitDx=0;exitDy=0;entryX=0;entryY=0.5;entryDx=0;entryDy=0;" edge="1" parent="1" source="j-aHU3Jmd16EjFNAe3ry-95" target="j-aHU3Jmd16EjFNAe3ry-97">
          <mxGeometry x="0.1017" y="3" relative="1" as="geometry">
            <Array as="points">
              <mxPoint x="489" y="3110" />
              <mxPoint x="489" y="2980" />
            </Array>
            <mxPoint x="1" y="1" as="offset" />
          </mxGeometry>
        </mxCell>
        <mxCell id="j-aHU3Jmd16EjFNAe3ry-89" value="Channel==Email" style="edgeLabel;html=1;align=center;verticalAlign=middle;resizable=0;points=[];" vertex="1" connectable="0" parent="j-aHU3Jmd16EjFNAe3ry-88">
          <mxGeometry x="0.225" y="-2" relative="1" as="geometry">
            <mxPoint as="offset" />
          </mxGeometry>
        </mxCell>
        <mxCell id="j-aHU3Jmd16EjFNAe3ry-90" style="edgeStyle=orthogonalEdgeStyle;rounded=0;orthogonalLoop=1;jettySize=auto;html=1;entryX=0;entryY=0.5;entryDx=0;entryDy=0;" edge="1" parent="1" source="j-aHU3Jmd16EjFNAe3ry-95" target="j-aHU3Jmd16EjFNAe3ry-102">
          <mxGeometry relative="1" as="geometry">
            <mxPoint x="574" y="3220" as="targetPoint" />
            <Array as="points">
              <mxPoint x="489" y="3110" />
              <mxPoint x="489" y="3220" />
            </Array>
          </mxGeometry>
        </mxCell>
        <mxCell id="j-aHU3Jmd16EjFNAe3ry-91" value="Channel == Other(&lt;span style=&quot;font-size:10.5pt;mso-bidi-font-size:&lt;br/&gt;11.0pt;font-family:等线;mso-ascii-theme-font:minor-latin;mso-fareast-theme-font:&lt;br/&gt;minor-fareast;mso-hansi-theme-font:minor-latin;mso-bidi-font-family:&amp;quot;Times New Roman&amp;quot;;&lt;br/&gt;mso-bidi-theme-font:minor-bidi;mso-ansi-language:EN-US;mso-fareast-language:&lt;br/&gt;ZH-CN;mso-bidi-language:AR-SA&quot; lang=&quot;EN-US&quot;&gt;&amp;nbsp;SMS, MMS,&lt;br/&gt;AppPush and Whatsapp&lt;/span&gt;&lt;br&gt;)" style="edgeLabel;html=1;align=center;verticalAlign=middle;resizable=0;points=[];" vertex="1" connectable="0" parent="j-aHU3Jmd16EjFNAe3ry-90">
          <mxGeometry x="-0.1155" y="-1" relative="1" as="geometry">
            <mxPoint as="offset" />
          </mxGeometry>
        </mxCell>
        <mxCell id="j-aHU3Jmd16EjFNAe3ry-95" value="getUserMessageList" style="rounded=0;whiteSpace=wrap;html=1;" vertex="1" parent="1">
          <mxGeometry x="200" y="3070" width="229" height="60" as="geometry" />
        </mxCell>
        <mxCell id="j-aHU3Jmd16EjFNAe3ry-96" value="" style="edgeStyle=orthogonalEdgeStyle;rounded=0;orthogonalLoop=1;jettySize=auto;html=1;" edge="1" parent="1" source="j-aHU3Jmd16EjFNAe3ry-97" target="j-aHU3Jmd16EjFNAe3ry-119">
          <mxGeometry relative="1" as="geometry">
            <mxPoint x="799" y="2980" as="targetPoint" />
          </mxGeometry>
        </mxCell>
        <mxCell id="j-aHU3Jmd16EjFNAe3ry-97" value="getUserEmailMessageHisList方法查询EmailMessage" style="whiteSpace=wrap;html=1;rounded=0;" vertex="1" parent="1">
          <mxGeometry x="574" y="2950" width="186" height="60" as="geometry" />
        </mxCell>
        <mxCell id="j-aHU3Jmd16EjFNAe3ry-98" value="" style="edgeStyle=orthogonalEdgeStyle;rounded=0;orthogonalLoop=1;jettySize=auto;html=1;" edge="1" parent="1" source="j-aHU3Jmd16EjFNAe3ry-102" target="j-aHU3Jmd16EjFNAe3ry-104">
          <mxGeometry relative="1" as="geometry" />
        </mxCell>
        <mxCell id="j-aHU3Jmd16EjFNAe3ry-99" value="true" style="edgeLabel;html=1;align=center;verticalAlign=middle;resizable=0;points=[];" vertex="1" connectable="0" parent="j-aHU3Jmd16EjFNAe3ry-98">
          <mxGeometry x="-0.2988" relative="1" as="geometry">
            <mxPoint as="offset" />
          </mxGeometry>
        </mxCell>
        <mxCell id="j-aHU3Jmd16EjFNAe3ry-100" value="" style="edgeStyle=orthogonalEdgeStyle;rounded=0;orthogonalLoop=1;jettySize=auto;html=1;" edge="1" parent="1" source="j-aHU3Jmd16EjFNAe3ry-102" target="j-aHU3Jmd16EjFNAe3ry-106">
          <mxGeometry relative="1" as="geometry" />
        </mxCell>
        <mxCell id="j-aHU3Jmd16EjFNAe3ry-101" value="false" style="edgeLabel;html=1;align=center;verticalAlign=middle;resizable=0;points=[];" vertex="1" connectable="0" parent="j-aHU3Jmd16EjFNAe3ry-100">
          <mxGeometry x="-0.26" y="-2" relative="1" as="geometry">
            <mxPoint as="offset" />
          </mxGeometry>
        </mxCell>
        <mxCell id="j-aHU3Jmd16EjFNAe3ry-102" value="&lt;span style=&quot;font-size:10.5pt;mso-bidi-font-size:&lt;br/&gt;11.0pt;font-family:等线;mso-ascii-theme-font:minor-latin;mso-fareast-theme-font:&lt;br/&gt;minor-fareast;mso-hansi-theme-font:minor-latin;mso-bidi-font-family:&amp;quot;Times New Roman&amp;quot;;&lt;br/&gt;mso-bidi-theme-font:minor-bidi;mso-ansi-language:EN-US;mso-fareast-language:&lt;br/&gt;ZH-CN;mso-bidi-language:AR-SA&quot; lang=&quot;EN-US&quot;&gt;Message Bucket Switch&lt;/span&gt;" style="rhombus;whiteSpace=wrap;html=1;" vertex="1" parent="1">
          <mxGeometry x="633.25" y="3180" width="130" height="80" as="geometry" />
        </mxCell>
        <mxCell id="j-aHU3Jmd16EjFNAe3ry-103" style="edgeStyle=orthogonalEdgeStyle;rounded=0;orthogonalLoop=1;jettySize=auto;html=1;exitX=1;exitY=0.5;exitDx=0;exitDy=0;entryX=0;entryY=0.5;entryDx=0;entryDy=0;" edge="1" parent="1" source="j-aHU3Jmd16EjFNAe3ry-104" target="j-aHU3Jmd16EjFNAe3ry-122">
          <mxGeometry relative="1" as="geometry">
            <mxPoint x="1040" y="3220" as="targetPoint" />
          </mxGeometry>
        </mxCell>
        <mxCell id="j-aHU3Jmd16EjFNAe3ry-104" value="getCeBucketMessageHisList方法查询ce_MessageBuket__c" style="whiteSpace=wrap;html=1;" vertex="1" parent="1">
          <mxGeometry x="824" y="3190" width="165" height="60" as="geometry" />
        </mxCell>
        <mxCell id="j-aHU3Jmd16EjFNAe3ry-105" style="edgeStyle=orthogonalEdgeStyle;rounded=0;orthogonalLoop=1;jettySize=auto;html=1;exitX=1;exitY=0.5;exitDx=0;exitDy=0;" edge="1" parent="1" source="j-aHU3Jmd16EjFNAe3ry-106" target="j-aHU3Jmd16EjFNAe3ry-120">
          <mxGeometry relative="1" as="geometry" />
        </mxCell>
        <mxCell id="j-aHU3Jmd16EjFNAe3ry-106" value="getUserBucketMessageHisList方法查询rsplus__SMS_Bucket__c" style="whiteSpace=wrap;html=1;" vertex="1" parent="1">
          <mxGeometry x="596.5" y="3050" width="203.5" height="60" as="geometry" />
        </mxCell>
        <mxCell id="j-aHU3Jmd16EjFNAe3ry-119" value="Return Result" style="text;html=1;strokeColor=none;fillColor=none;align=center;verticalAlign=middle;whiteSpace=wrap;rounded=0;" vertex="1" parent="1">
          <mxGeometry x="820" y="2962.5" width="100" height="35" as="geometry" />
        </mxCell>
        <mxCell id="j-aHU3Jmd16EjFNAe3ry-120" value="&#xa;&lt;span style=&quot;color: rgb(0, 0, 0); font-family: Helvetica; font-size: 12px; font-style: normal; font-variant-ligatures: normal; font-variant-caps: normal; font-weight: 400; letter-spacing: normal; orphans: 2; text-align: center; text-indent: 0px; text-transform: none; widows: 2; word-spacing: 0px; -webkit-text-stroke-width: 0px; background-color: rgb(251, 251, 251); text-decoration-thickness: initial; text-decoration-style: initial; text-decoration-color: initial; float: none; display: inline !important;&quot;&gt;Return Result&lt;/span&gt;&#xa;&#xa;" style="text;html=1;strokeColor=none;fillColor=none;align=center;verticalAlign=middle;whiteSpace=wrap;rounded=0;" vertex="1" parent="1">
          <mxGeometry x="899" y="3062.5" width="90" height="35" as="geometry" />
        </mxCell>
        <mxCell id="j-aHU3Jmd16EjFNAe3ry-122" value="&#xa;&lt;span style=&quot;color: rgb(0, 0, 0); font-family: Helvetica; font-size: 12px; font-style: normal; font-variant-ligatures: normal; font-variant-caps: normal; font-weight: 400; letter-spacing: normal; orphans: 2; text-align: center; text-indent: 0px; text-transform: none; widows: 2; word-spacing: 0px; -webkit-text-stroke-width: 0px; background-color: rgb(251, 251, 251); text-decoration-thickness: initial; text-decoration-style: initial; text-decoration-color: initial; float: none; display: inline !important;&quot;&gt;Return Result&lt;/span&gt;&#xa;&#xa;" style="text;html=1;strokeColor=none;fillColor=none;align=center;verticalAlign=middle;whiteSpace=wrap;rounded=0;" vertex="1" parent="1">
          <mxGeometry x="1060" y="3202.5" width="90" height="35" as="geometry" />
        </mxCell>
      </root>
    </mxGraphModel>
  </diagram>
</mxfile>
